<svg width="474" height="146" viewBox="0 0 474 146" fill="none" xmlns="http://www.w3.org/2000/svg">
<mask id="mask0" mask-type="alpha" maskUnits="userSpaceOnUse" x="0" y="52" width="105" height="70">
<path d="M0.214844 52.668H69.7772C88.7812 52.668 104.187 68.0738 104.187 87.0778C104.187 106.082 88.7811 121.488 69.7771 121.488H0.214844V52.668Z" fill="#6499FF"/>
</mask>
<g mask="url(#mask0)">
<path opacity="0.7" fill-rule="evenodd" clip-rule="evenodd" d="M15.4715 52.668H0.214844V109.607L15.4715 52.668ZM0.683368 121.488H69.7771C88.7811 121.488 104.187 106.082 104.187 87.0778C104.187 77.5274 100.296 68.8857 94.0132 62.6514L0.683368 121.488Z" fill="#FFB800"/>
</g>
<path d="M97.545 16.2829L0.214844 121.492V13.3792C0.214844 11.0177 2.12924 9.1033 4.49076 9.1033H94.4062C98.136 9.1033 100.078 13.545 97.545 16.2829Z" fill="#FAC949"/>
<path d="M141.32 52.7422H157.162C167.553 52.7422 174.031 48.1242 174.031 38.8241C174.031 33.693 171.593 30.1012 167.296 28.1129C170.631 26.1246 172.363 22.9818 172.363 19.0694C172.363 10.5389 166.334 5.92092 155.944 5.92092H141.32V52.7422ZM156.713 32.8592C163.255 32.8592 165.051 34.8475 165.051 38.6317C165.051 42.4159 162.357 44.5324 157.162 44.5324H150.235V32.8592H156.713ZM156.008 14.1307C161.267 14.1307 163.384 15.67 163.384 19.0694C163.384 22.3404 161.46 24.5211 155.944 24.5211H150.235V14.1307H156.008ZM178.22 52.7422H187.135V5.92092H178.22V52.7422ZM192.556 52.7422H201.471V20.2239L221.995 52.7422H231.488V5.92092H222.573V37.413L202.69 5.92092H192.556V52.7422ZM236.588 52.7422H249.737C264.04 52.7422 274.11 42.6724 274.11 29.3316C274.11 16.0548 265.194 5.92092 249.352 5.92092H236.588V52.7422ZM248.326 14.1948C259.807 14.1948 265.194 20.4804 265.194 29.3316C265.194 37.9261 258.845 44.4683 248.711 44.4683H245.504V14.1948H248.326ZM301.195 53.3836C314.536 53.3836 325.183 42.6724 325.183 29.3316C325.183 16.0548 314.536 5.27954 301.195 5.27954C287.919 5.27954 277.271 16.0548 277.271 29.3316C277.271 42.6724 287.919 53.3836 301.195 53.3836ZM301.195 44.5966C292.793 44.5966 286.123 37.7337 286.123 29.3316C286.123 20.9294 292.793 14.0665 301.195 14.0665C309.597 14.0665 316.332 20.9294 316.332 29.3316C316.332 37.7337 309.597 44.5966 301.195 44.5966ZM141.32 124.742H154.468C168.771 124.742 178.841 114.672 178.841 101.332C178.841 88.0548 169.926 77.9209 154.084 77.9209H141.32V124.742ZM153.057 86.1948C164.538 86.1948 169.926 92.4804 169.926 101.332C169.926 109.926 163.576 116.468 153.442 116.468H150.235V86.1948H153.057ZM182.98 124.742H191.895V77.9209H182.98V124.742ZM213.222 125.384C223.549 125.384 229.45 118.2 229.45 110.76C229.45 101.781 222.266 98.9584 215.916 96.906C210.913 95.2384 206.424 94.0197 206.424 90.428C206.424 87.4776 208.669 85.2327 212.838 85.2327C216.494 85.2327 219.251 86.7721 221.176 89.6583L228.552 84.0782C224.767 80.1658 220.406 77.2795 212.773 77.2795C203.73 77.2795 197.188 83.2444 197.188 90.7487C197.188 99.7281 204.179 102.165 210.464 104.09C215.467 105.629 220.149 106.847 220.149 110.696C220.149 113.903 217.712 116.853 213.158 116.853C208.989 116.853 205.333 114.544 203.024 110.568L194.879 116.981C199.112 121.792 204.756 125.384 213.222 125.384ZM256.226 125.384C265.526 125.384 273.351 119.996 277.456 112.043L269.31 107.745C266.937 112.748 262.447 116.468 256.034 116.468C247.439 116.468 241.025 109.734 241.025 101.332C241.025 92.737 247.503 86.0665 256.226 86.0665C262.191 86.0665 266.296 89.0169 268.925 93.8915L276.75 88.8886C272.645 81.8975 265.013 77.2795 256.226 77.2795C242.693 77.2795 232.174 87.3493 232.174 101.332C232.174 114.672 241.731 125.384 256.226 125.384ZM303.262 125.384C316.603 125.384 327.25 114.672 327.25 101.332C327.25 88.0548 316.603 77.2795 303.262 77.2795C289.985 77.2795 279.338 88.0548 279.338 101.332C279.338 114.672 289.985 125.384 303.262 125.384ZM303.262 116.597C294.86 116.597 288.19 109.734 288.19 101.332C288.19 92.9294 294.86 86.0665 303.262 86.0665C311.664 86.0665 318.399 92.9294 318.399 101.332C318.399 109.734 311.664 116.597 303.262 116.597ZM342.206 124.742H351.186L366.836 77.9209H357.6L346.696 111.145L335.793 77.9209H326.557L342.206 124.742ZM370.315 124.742H398.087V116.212H379.23V105.501H398.087V96.9701H379.23V86.4514H398.087V77.9209H370.315V124.742ZM402.698 124.742H411.613V86.259H416.359C423.094 86.259 425.659 88.9528 425.659 93.6349C425.659 96.9701 423.286 101.588 416.359 101.588H411.998L426.044 124.742H436.242L425.595 107.553C431.817 105.18 434.639 99.4715 434.639 93.6349C434.639 84.7838 428.161 77.9209 417.386 77.9209H402.698V124.742ZM449.041 124.742H457.957V102.743L472.965 77.9209H463.152L453.531 94.0197L443.975 77.9209H434.161L449.041 102.55V124.742Z" fill="black"/>
</svg>
