<svg width="463" height="145" viewBox="0 0 463 145" fill="none" xmlns="http://www.w3.org/2000/svg">
<path d="M96.2273 17.4328C96.2273 14.4163 92.6116 12.871 90.4314 14.9557L36.8803 66.1624C36.2041 66.809 35.8216 67.7039 35.8216 68.6395L35.8216 116.208C35.8216 119.224 39.4373 120.77 41.6175 118.685L95.1686 67.4783C95.8448 66.8317 96.2273 65.9368 96.2273 65.0012L96.2273 17.4328Z" fill="#D763FF"/>
<path opacity="0.7" d="M35.8215 16.9968C35.8215 14.0469 32.3423 12.4751 30.1288 14.4251L1.42536 39.711C0.686781 40.3617 0.263598 41.2984 0.263597 42.2827L0.263589 90.5041C0.263589 93.4541 3.7428 95.0258 5.95637 93.0758L34.6598 67.7898C35.3983 67.1392 35.8215 66.2024 35.8215 65.2181L35.8215 16.9968Z" fill="#D763FF"/>
<path d="M156.633 17.388C156.633 14.3776 153.03 12.8298 150.846 14.9021L97.2951 65.7267C96.6133 66.3738 96.2272 67.2726 96.2272 68.2126L96.2272 115.389C96.2271 118.399 99.8302 119.947 102.014 117.875L155.565 67.0504C156.247 66.4033 156.633 65.5045 156.633 64.5645L156.633 17.388Z" fill="#D763FF"/>
<path d="M205.077 52.0078H214.185L223.806 19.2971L233.491 52.0078H242.278L255.49 5.18655H246.447L237.852 37.4483L228.231 5.18655H219.444L209.824 37.5766L201.101 5.18655H191.801L205.077 52.0078ZM278.684 52.6492C292.024 52.6492 302.671 41.938 302.671 28.5972C302.671 15.3205 292.024 4.54516 278.684 4.54516C265.407 4.54516 254.76 15.3205 254.76 28.5972C254.76 41.938 265.407 52.6492 278.684 52.6492ZM278.684 43.8622C270.281 43.8622 263.611 36.9994 263.611 28.5972C263.611 20.195 270.281 13.3322 278.684 13.3322C287.086 13.3322 293.82 20.195 293.82 28.5972C293.82 36.9994 287.086 43.8622 278.684 43.8622ZM306.527 52.0078H315.442V19.4895L335.966 52.0078H345.459V5.18655H336.544V36.6787L316.661 5.18655H306.527V52.0078ZM350.559 52.0078H363.708C378.011 52.0078 388.081 41.938 388.081 28.5972C388.081 15.3205 379.165 5.18655 363.323 5.18655H350.559V52.0078ZM362.297 13.4604C373.778 13.4604 379.165 19.746 379.165 28.5972C379.165 37.1918 372.816 43.7339 362.682 43.7339H359.475V13.4604H362.297ZM391.899 52.0078H419.671V43.4774H400.814V32.7662H419.671V24.2357H400.814V13.717H419.671V5.18655H391.899V52.0078ZM424.281 52.0078H433.197V13.5246H437.943C444.678 13.5246 447.243 16.2184 447.243 20.9005C447.243 24.2357 444.87 28.8537 437.943 28.8537H433.582L447.628 52.0078H457.826L447.179 34.8186C453.4 32.4455 456.222 26.7372 456.222 20.9005C456.222 12.0494 449.744 5.18655 438.969 5.18655H424.281V52.0078ZM193.532 124.008H202.448V110.667H209.567C219.316 110.667 226.5 103.227 226.5 93.9268C226.5 84.6266 219.316 77.1865 209.631 77.1865H193.532V124.008ZM208.99 85.4604C214.057 85.4604 217.52 89.2446 217.52 93.9268C217.52 98.6089 214.057 102.393 208.99 102.393H202.448V85.4604H208.99ZM222.619 124.008H231.919L234.741 115.862H252.7L255.522 124.008H264.822L248.21 77.1865H239.231L222.619 124.008ZM243.72 89.886L249.749 107.332H237.691L243.72 89.886ZM272.384 124.008H281.299V102.008L296.308 77.1865H286.494L276.874 93.2854L267.317 77.1865H257.504L272.384 101.816V124.008ZM299.637 124.008H308.552V91.746L322.47 110.603L336.581 91.5536V124.008H345.496V77.1865H337.094L322.534 96.6847L308.488 77.1865H299.637V124.008ZM350.622 124.008H378.394V115.477H359.537V104.766H378.394V96.2357H359.537V85.717H378.394V77.1865H350.622V124.008ZM383.005 124.008H391.92V91.4895L412.444 124.008H421.937V77.1865H413.022V108.679L393.139 77.1865H383.005V124.008ZM438.518 124.008H447.433V85.717H459.876V77.1865H426.075V85.717H438.518V124.008Z" fill="black"/>
</svg>
