<svg xmlns="http://www.w3.org/2000/svg" xmlns:xlink="http://www.w3.org/1999/xlink" x="0px" y="0px" viewBox="0 0 512 512" style="enable-background:new 0 0 512 512;" xml:space="preserve">
<g>
	<g>
		<g>
			<path d="M512,256c0-38.598-31.402-70-70-70c-38.598,0-70,31.402-70,70c0,31.649,21.119,58.445,50,67.073v51.853     c-22.54,6.734-40.34,24.534-47.073,47.073h-51.854c-6.733-22.54-24.534-40.34-47.073-47.073v-51.853     c28.881-8.628,50-35.424,50-67.073c0-38.598-31.402-70-70-70c-12.04,0-23.378,3.057-33.283,8.432l-91.15-91.15     C136.943,93.378,140,82.04,140,70c0-38.598-31.402-70-70-70S0,31.402,0,70s31.402,70,70,70c12.04,0,23.378-3.057,33.283-8.432     l91.15,91.15C189.057,232.622,186,243.96,186,256c0,31.649,21.119,58.445,50,67.073v51.853c-28.881,8.628-50,35.424-50,67.073     c0,38.598,31.402,70,70,70c31.648,0,58.445-21.119,67.073-50h51.854c8.628,28.881,35.425,50,67.073,50c38.598,0,70-31.402,70-70     c0-31.649-21.119-58.445-50-67.073v-51.853C490.881,314.445,512,287.649,512,256z M70,100c-16.542,0-30-13.458-30-30     s13.458-30,30-30s30,13.458,30,30S86.542,100,70,100z M226,256c0-16.542,13.458-30,30-30s30,13.458,30,30s-13.458,30-30,30     S226,272.542,226,256z M256,472c-16.542,0-30-13.458-30-30s13.458-30,30-30s30,13.458,30,30S272.542,472,256,472z M472,442     c0,16.542-13.458,30-30,30s-30-13.458-30-30s13.458-30,30-30S472,425.458,472,442z M442,286c-16.542,0-30-13.458-30-30     s13.458-30,30-30s30,13.458,30,30S458.542,286,442,286z"></path>
			<path d="M442,140c38.598,0,70-31.402,70-70S480.598,0,442,0c-38.598,0-70,31.402-70,70S403.402,140,442,140z M442,40     c16.542,0,30,13.458,30,30s-13.458,30-30,30s-30-13.458-30-30S425.458,40,442,40z"></path>
			<path d="M256,140c38.598,0,70-31.402,70-70S294.598,0,256,0c-38.598,0-70,31.402-70,70S217.402,140,256,140z M256,40     c16.542,0,30,13.458,30,30s-13.458,30-30,30s-30-13.458-30-30S239.458,40,256,40z"></path>
			<path d="M70,186c-38.598,0-70,31.402-70,70c0,38.598,31.402,70,70,70s70-31.402,70-70C140,217.402,108.598,186,70,186z M70,286     c-16.542,0-30-13.458-30-30s13.458-30,30-30s30,13.458,30,30S86.542,286,70,286z"></path>
			<path d="M70,372c-38.598,0-70,31.402-70,70c0,38.598,31.402,70,70,70s70-31.402,70-70C140,403.402,108.598,372,70,372z M70,472     c-16.542,0-30-13.458-30-30s13.458-30,30-30s30,13.458,30,30S86.542,472,70,472z"></path>
		</g>
	</g>
</g>
</svg>