<svg xmlns="http://www.w3.org/2000/svg" xmlns:xlink="http://www.w3.org/1999/xlink" x="0px" y="0px" viewBox="0 0 512 512" style="enable-background:new 0 0 512 512;" xml:space="preserve" width="512" height="512">
<path d="M262.354,293.88L472.707,78.966l28.586,27.979L263.366,350.031L137.22,230.113l27.56-28.991L262.354,293.88z   M509.142,156.111l-37.391,38.201c-2.816,37.691-31.45,82.908-83.277,131.282c-54.76,51.111-114.809,87.004-126.292,93.681  c-1.616,0.94-3.871,2.246-6.185,3.584c-2.315-1.339-4.571-2.645-6.188-3.585c-11.481-6.676-71.527-42.567-126.287-93.68  C68.882,274.592,40,227.092,40,188.229c0-61.984,40.299-105.274,98-105.274c15.005,0,28.13,2.258,39.497,5.835  c41.724,19.228,79.165,79.428,79.165,79.428s35.956-58.852,75.789-78.764c12.782-4.308,26.657-6.499,41.55-6.499  c12.003,0,23.25,1.879,33.541,5.405l30.026-30.677C418.45,48.058,396.798,42.955,374,42.955c-49.642,0-83.295,19.374-102.784,35.626  c-5.15,4.295-10.321,9.29-15.051,14.583c-4.835-5.455-10.144-10.585-15.434-14.965C221.313,62.121,187.729,42.955,138,42.955  c-37.829,0-72.515,14.029-97.669,39.502C13.946,109.177,0,145.752,0,188.229c0,50.951,32.376,107.006,96.229,166.606  c57.893,54.038,121.342,91.964,133.474,99.018c5.055,2.939,16.306,9.427,16.306,9.427l9.995,5.764l9.993-5.767  c0,0,11.242-6.487,16.293-9.425c12.132-7.054,75.584-44.981,133.478-99.018C479.623,295.235,512,239.18,512,188.229  C512,177.092,511.032,166.365,509.142,156.111z"></path>















</svg>