<svg xmlns="http://www.w3.org/2000/svg" viewBox="0 0 512 512"><g><path d="m437.02 74.98c-48.353-48.351-112.64-74.98-181.02-74.98s-132.667 26.629-181.02 74.98c-48.351 48.353-74.98 112.64-74.98 181.02 0 40.685 9.268 79.589 27.546 115.633 17.425 34.363 42.89 64.885 73.64 88.267l18.158-23.881c-27.163-20.654-49.654-47.61-65.042-77.954-16.125-31.8-24.302-66.139-24.302-102.065 0-60.367 23.508-117.12 66.194-159.806s99.439-66.194 159.806-66.194 117.12 23.508 159.806 66.194 66.194 99.439 66.194 159.806-23.508 117.12-66.194 159.806c-39.132 39.132-90.082 62.146-144.806 65.707v-58.939h45.013v-168.148h-30v42.729h-60.025v-42.729h-30v168.147h45.012v89.427h15c68.38 0 132.667-26.629 181.02-74.98 48.351-48.353 74.98-112.64 74.98-181.02s-26.629-132.667-74.98-181.02zm-211.033 252.175h60.025v65.419h-60.025z"></path><path d="m251.819 74.515-42.922 82.775h44.549l-24.27 45.58 26.479 14.1 47.754-89.68h-45.162l20.204-38.965z"></path></g></svg>