<svg xmlns="http://www.w3.org/2000/svg" viewBox="0 0 512 512"><path d="m448 192c0-105.869-86.131-192-192-192s-192 86.131-192 192c0 86.396 57.363 159.637 136 183.661v16.339c0 23.741 17.329 43.499 40 47.321v56.679c0 8.836 7.164 16 16 16s16-7.164 16-16v-56.679c22.671-3.821 40-23.58 40-47.321v-16.339c78.637-24.024 136-97.265 136-183.661zm-168 200c0 8.822-7.178 16-16 16h-16c-8.822 0-16-7.178-16-16v-9.497c15.938 1.996 32.061 1.997 48 0zm-24-40c-88.224 0-160-71.776-160-160s71.776-160 160-160 160 71.776 160 160-71.776 160-160 160z"></path><path d="m256 64c-70.58 0-128 57.42-128 128s57.42 128 128 128 128-57.42 128-128-57.42-128-128-128zm0 224c-52.935 0-96-43.065-96-96s43.065-96 96-96 96 43.065 96 96-43.065 96-96 96z"></path><path d="m280 176h-22.112l12.423-24.845c3.952-7.903.748-17.514-7.156-21.466-7.903-3.952-17.515-.749-21.466 7.156l-24 48c-5.308 10.618 2.421 23.155 14.311 23.155h22.112l-12.423 24.845c-3.952 7.903-.748 17.514 7.156 21.466 7.912 3.956 17.519.738 21.466-7.156l24-48c5.308-10.618-2.421-23.155-14.311-23.155z"></path></svg>