<svg width="568" height="107" viewBox="0 0 568 107" fill="none" xmlns="http://www.w3.org/2000/svg">
<path d="M106.918 53.3008L133.569 79.9518L106.918 106.603L80.2668 79.9518L106.918 53.3008Z" fill="#3998FF"/>
<path d="M53.5897 53.2773L80.2288 79.9165L53.5897 106.556L26.9506 79.9165L53.5897 53.2773Z" fill="#D763FF"/>
<rect x="26.9862" y="26.6758" width="37.7238" height="37.7238" transform="rotate(45 26.9862 26.6758)" fill="#FFB800"/>
<path d="M106.939 0L133.614 26.6748L106.939 53.3496L80.2643 26.6748L106.939 0Z" fill="#999999"/>
<path d="M53.6371 0L80.3119 26.6748L53.6371 53.3496L26.9624 26.6748L53.6371 0Z" fill="#FF7979"/>
<rect x="133.591" y="26.6523" width="37.7238" height="37.7238" transform="rotate(45 133.591 26.6523)" fill="#19E6F3"/>
<path d="M224.251 53.4C226.691 53.92 228.651 55.14 230.131 57.06C231.611 58.94 232.351 61.1 232.351 63.54C232.351 67.06 231.111 69.86 228.631 71.94C226.191 73.98 222.771 75 218.371 75H198.751V32.88H217.711C221.991 32.88 225.331 33.86 227.731 35.82C230.171 37.78 231.391 40.44 231.391 43.8C231.391 46.28 230.731 48.34 229.411 49.98C228.131 51.62 226.411 52.76 224.251 53.4ZM209.011 49.92H215.731C217.411 49.92 218.691 49.56 219.571 48.84C220.491 48.08 220.951 46.98 220.951 45.54C220.951 44.1 220.491 43 219.571 42.24C218.691 41.48 217.411 41.1 215.731 41.1H209.011V49.92ZM216.571 66.72C218.291 66.72 219.611 66.34 220.531 65.58C221.491 64.78 221.971 63.64 221.971 62.16C221.971 60.68 221.471 59.52 220.471 58.68C219.511 57.84 218.171 57.42 216.451 57.42H209.011V66.72H216.571ZM271.362 41.52V75H261.102V70.44C260.062 71.92 258.642 73.12 256.842 74.04C255.082 74.92 253.122 75.36 250.962 75.36C248.402 75.36 246.142 74.8 244.182 73.68C242.222 72.52 240.702 70.86 239.622 68.7C238.542 66.54 238.002 64 238.002 61.08V41.52H248.202V59.7C248.202 61.94 248.782 63.68 249.942 64.92C251.102 66.16 252.662 66.78 254.622 66.78C256.622 66.78 258.202 66.16 259.362 64.92C260.522 63.68 261.102 61.94 261.102 59.7V41.52H271.362ZM292.351 75.48C289.431 75.48 286.831 74.98 284.551 73.98C282.271 72.98 280.471 71.62 279.151 69.9C277.831 68.14 277.091 66.18 276.931 64.02H287.071C287.191 65.18 287.731 66.12 288.691 66.84C289.651 67.56 290.831 67.92 292.231 67.92C293.511 67.92 294.491 67.68 295.171 67.2C295.891 66.68 296.251 66.02 296.251 65.22C296.251 64.26 295.751 63.56 294.751 63.12C293.751 62.64 292.131 62.12 289.891 61.56C287.491 61 285.491 60.42 283.891 59.82C282.291 59.18 280.911 58.2 279.751 56.88C278.591 55.52 278.011 53.7 278.011 51.42C278.011 49.5 278.531 47.76 279.571 46.2C280.651 44.6 282.211 43.34 284.251 42.42C286.331 41.5 288.791 41.04 291.631 41.04C295.831 41.04 299.131 42.08 301.531 44.16C303.971 46.24 305.371 49 305.731 52.44H296.251C296.091 51.28 295.571 50.36 294.691 49.68C293.851 49 292.731 48.66 291.331 48.66C290.131 48.66 289.211 48.9 288.571 49.38C287.931 49.82 287.611 50.44 287.611 51.24C287.611 52.2 288.111 52.92 289.111 53.4C290.151 53.88 291.751 54.36 293.911 54.84C296.391 55.48 298.411 56.12 299.971 56.76C301.531 57.36 302.891 58.36 304.051 59.76C305.251 61.12 305.871 62.96 305.911 65.28C305.911 67.24 305.351 69 304.231 70.56C303.151 72.08 301.571 73.28 299.491 74.16C297.451 75.04 295.071 75.48 292.351 75.48ZM317.349 38.04C315.549 38.04 314.069 37.52 312.909 36.48C311.789 35.4 311.229 34.08 311.229 32.52C311.229 30.92 311.789 29.6 312.909 28.56C314.069 27.48 315.549 26.94 317.349 26.94C319.109 26.94 320.549 27.48 321.669 28.56C322.829 29.6 323.409 30.92 323.409 32.52C323.409 34.08 322.829 35.4 321.669 36.48C320.549 37.52 319.109 38.04 317.349 38.04ZM322.449 41.52V75H312.189V41.52H322.449ZM350.284 41.16C354.204 41.16 357.324 42.44 359.644 45C362.004 47.52 363.184 51 363.184 55.44V75H352.984V56.82C352.984 54.58 352.404 52.84 351.244 51.6C350.084 50.36 348.524 49.74 346.564 49.74C344.604 49.74 343.044 50.36 341.884 51.6C340.724 52.84 340.144 54.58 340.144 56.82V75H329.884V41.52H340.144V45.96C341.184 44.48 342.584 43.32 344.344 42.48C346.104 41.6 348.084 41.16 350.284 41.16ZM368.574 53.88C368.574 49.72 369.474 46.02 371.274 42.78C373.074 39.5 375.574 36.96 378.774 35.16C382.014 33.32 385.674 32.4 389.754 32.4C394.754 32.4 399.034 33.72 402.594 36.36C406.154 39 408.534 42.6 409.734 47.16H398.454C397.614 45.4 396.414 44.06 394.854 43.14C393.334 42.22 391.594 41.76 389.634 41.76C386.474 41.76 383.914 42.86 381.954 45.06C379.994 47.26 379.014 50.2 379.014 53.88C379.014 57.56 379.994 60.5 381.954 62.7C383.914 64.9 386.474 66 389.634 66C391.594 66 393.334 65.54 394.854 64.62C396.414 63.7 397.614 62.36 398.454 60.6H409.734C408.534 65.16 406.154 68.76 402.594 71.4C399.034 74 394.754 75.3 389.754 75.3C385.674 75.3 382.014 74.4 378.774 72.6C375.574 70.76 373.074 68.22 371.274 64.98C369.474 61.74 368.574 58.04 368.574 53.88ZM431.257 75.48C427.977 75.48 425.017 74.78 422.377 73.38C419.777 71.98 417.717 69.98 416.197 67.38C414.717 64.78 413.977 61.74 413.977 58.26C413.977 54.82 414.737 51.8 416.257 49.2C417.777 46.56 419.857 44.54 422.497 43.14C425.137 41.74 428.097 41.04 431.377 41.04C434.657 41.04 437.617 41.74 440.257 43.14C442.897 44.54 444.977 46.56 446.497 49.2C448.017 51.8 448.777 54.82 448.777 58.26C448.777 61.7 447.997 64.74 446.437 67.38C444.917 69.98 442.817 71.98 440.137 73.38C437.497 74.78 434.537 75.48 431.257 75.48ZM431.257 66.6C433.217 66.6 434.877 65.88 436.237 64.44C437.637 63 438.337 60.94 438.337 58.26C438.337 55.58 437.657 53.52 436.297 52.08C434.977 50.64 433.337 49.92 431.377 49.92C429.377 49.92 427.717 50.64 426.397 52.08C425.077 53.48 424.417 55.54 424.417 58.26C424.417 60.94 425.057 63 426.337 64.44C427.657 65.88 429.297 66.6 431.257 66.6Z" fill="black"/>
</svg>
