<svg xmlns="http://www.w3.org/2000/svg" xmlns:xlink="http://www.w3.org/1999/xlink" id="Capa_1" x="0px" y="0px" viewBox="0 0 512 512" style="enable-background:new 0 0 512 512;" xml:space="preserve">
<g>
	<g>
		<g>
			<path d="M222.685,309.858l-27.337,29.2l72.62,67.986l135.835-149.497l-29.604-26.899l-26.571,29.243     c-1.823-0.604-3.703-1.094-5.641-1.442h-0.001c-24.105-4.333-47.045-18.533-55.789-24.438     c-9.121-6.159-19.735-9.414-30.695-9.414c-10.96,0-21.574,3.255-30.696,9.414c-8.743,5.904-31.683,20.104-55.789,24.438     c-19.42,3.493-33.515,20.338-33.515,40.054v62.396c0,93.954,107.28,142.923,111.848,144.961l8.152,3.64l8.152-3.64     c4.567-2.038,111.848-51.007,111.848-144.961v-13.753l-55.009,61.426c-18.76,28.985-50.198,48.528-64.989,56.595     c-21.873-11.93-80.002-48.855-80.002-104.268v-62.396c0-0.34,0.245-0.622,0.594-0.685c30.468-5.478,57.621-21.559,71.094-30.656     c2.485-1.678,5.359-2.564,8.313-2.564c2.954,0,5.827,0.887,8.312,2.564c10.788,7.284,30.349,19.041,53.356,26.251l-51.503,56.683     L222.685,309.858z"></path>
			<path d="M416.942,160.162C414.636,72.832,342.877,2.5,255,2.5c-40.353,0-79.017,14.929-108.869,42.036     c-25.723,23.356-43.105,54.061-49.911,87.701c-24.318,5.229-46.515,17.807-63.687,36.321C11.554,191.177,0,220.633,0,251.5     c0,58.35,41.179,107.25,96,119.196V329.23c-32.503-10.896-56-41.604-56-77.73c0-42.448,33.096-78.349,75.346-81.731l16.6-1.329     l1.7-16.566C140.044,89.521,192.215,42.5,255,42.5c67.271,0,122,54.729,122,122v35h28c36.944,0,67,30.056,67,67     c0,33.197-24.273,60.817-56,66.082v40.356c53.852-5.525,96-51.151,96-106.438C512,211.537,470.343,166.12,416.942,160.162z"></path>
		</g>
	</g>
</g>
</svg>