<svg xmlns="http://www.w3.org/2000/svg" viewBox="0 -36 512 512"><path d="m472 159.121094h40v140.878906c0 33.085938-26.914062 60-60 60h-176v40h104v40h-248v-40h104v-40h-176c-33.085938 0-60-26.914062-60-60v-240c0-33.085938 26.914062-60 60-60h292v40h-292c-11.027344 0-20 8.972656-20 20v240c0 11.027344 8.972656 20 20 20h392c11.027344 0 20-8.972656 20-20zm-80-159v40h53.714844l-118.714844 118.714844-80.734375-80.734376-163.140625 168.613282 28.746094 27.8125 134.863281-139.386719 80.265625 80.265625 145-145v48.714844h40v-119zm0 0"></path></svg>