<svg xmlns="http://www.w3.org/2000/svg" viewBox="0 0 427 147"><rect x="104.884" y="7.88098" width="34.976" height="121.017" rx="17.488" fill-opacity="0.7"></rect><rect x="5.55273" y="74.338" width="34.976" height="54.5625" rx="17.488" fill-opacity="0.7"></rect><rect x="0.757324" y="25.9249" width="34.976" height="103.529" rx="17.488" transform="rotate(-45 0.757324 25.9249)" fill-opacity="0.7"></rect><rect x="122.13" y="0.885864" width="34.976" height="103.529" rx="17.488" transform="rotate(45 122.13 0.885864)" fill-opacity="0.7"></rect><path d="M183.635 54.0421H192.55V21.7803L206.468 40.6371L220.579 21.5879V54.0421H229.494V7.22085H221.092L206.532 26.719L192.486 7.22085H183.635V54.0421ZM257.261 54.6835C270.602 54.6835 281.249 43.9723 281.249 30.6315C281.249 17.3548 270.602 6.57946 257.261 6.57946C243.984 6.57946 233.337 17.3548 233.337 30.6315C233.337 43.9723 243.984 54.6835 257.261 54.6835ZM257.261 45.8965C248.859 45.8965 242.189 39.0337 242.189 30.6315C242.189 22.2293 248.859 15.3665 257.261 15.3665C265.663 15.3665 272.398 22.2293 272.398 30.6315C272.398 39.0337 265.663 45.8965 257.261 45.8965ZM285.104 54.0421H298.253C312.556 54.0421 322.625 43.9723 322.625 30.6315C322.625 17.3548 313.71 7.22085 297.868 7.22085H285.104V54.0421ZM296.842 15.4947C308.323 15.4947 313.71 21.7803 313.71 30.6315C313.71 39.2261 307.36 45.7682 297.227 45.7682H294.02V15.4947H296.842ZM343.312 54.6835C353.061 54.6835 360.245 48.9752 360.245 37.815V7.22085H351.33V38.3923C351.33 42.882 347.738 46.4096 343.248 46.4096C338.758 46.4096 335.359 42.882 335.359 38.3923V7.22085H326.444V37.815C326.444 48.9752 333.563 54.6835 343.312 54.6835ZM365.403 54.0421H391.251V45.5117H374.318V7.22085H365.403V54.0421ZM396.032 54.0421H423.804V45.5117H404.947V34.8005H423.804V26.27H404.947V15.7513H423.804V7.22085H396.032V54.0421ZM183.635 126.042H199.477C209.868 126.042 216.346 121.424 216.346 112.124C216.346 106.993 213.908 103.401 209.611 101.413C212.946 99.4245 214.678 96.2817 214.678 92.3693C214.678 83.8388 208.649 79.2208 198.259 79.2208H183.635V126.042ZM199.028 106.159C205.57 106.159 207.366 108.147 207.366 111.932C207.366 115.716 204.672 117.832 199.477 117.832H192.55V106.159H199.028ZM198.323 87.4306C203.582 87.4306 205.699 88.9699 205.699 92.3693C205.699 95.6404 203.774 97.8211 198.259 97.8211H192.55V87.4306H198.323ZM237.082 126.684C246.832 126.684 254.015 120.975 254.015 109.815V79.2208H245.1V110.392C245.1 114.882 241.508 118.41 237.018 118.41C232.529 118.41 229.129 114.882 229.129 110.392V79.2208H220.214V109.815C220.214 120.975 227.333 126.684 237.082 126.684ZM259.494 126.042H268.409V79.2208H259.494V126.042ZM273.83 126.042H299.678V117.512H282.745V79.2208H273.83V126.042ZM304.459 126.042H317.607C331.91 126.042 341.98 115.972 341.98 102.631C341.98 89.3548 333.065 79.2208 317.222 79.2208H304.459V126.042ZM316.196 87.4947C327.677 87.4947 333.065 93.7803 333.065 102.631C333.065 111.226 326.715 117.768 316.581 117.768H313.374V87.4947H316.196ZM345.798 126.042H373.57V117.512H354.713V106.8H373.57V98.27H354.713V87.7513H373.57V79.2208H345.798V126.042ZM378.181 126.042H387.096V87.5589H391.842C398.577 87.5589 401.142 90.2527 401.142 94.9348C401.142 98.27 398.769 102.888 391.842 102.888H387.481L401.527 126.042H411.725L401.078 108.853C407.3 106.48 410.122 100.771 410.122 94.9348C410.122 86.0837 403.644 79.2208 392.868 79.2208H378.181V126.042Z"></path></svg>