<svg xmlns="http://www.w3.org/2000/svg" xmlns:xlink="http://www.w3.org/1999/xlink" x="0px" y="0px" viewBox="0 0 511.999 511.999" style="enable-background:new 0 0 511.999 511.999;" xml:space="preserve">
<g>
	<g>
		<g>
			
				<rect x="134.869" y="423.638" transform="matrix(-0.7071 -0.7071 0.7071 -0.7071 -65.4241 905.6945)" width="39.98" height="85.517"></rect>
			
				<rect x="2.655" y="336.961" transform="matrix(0.7071 -0.7071 0.7071 0.7071 -239.1015 136.6608)" width="85.517" height="39.98"></rect>
			
				<rect x="-4.59" y="428.915" transform="matrix(0.7071 -0.7071 0.7071 0.7071 -298.9997 175.9617)" width="134.99" height="39.98"></rect>
			<circle cx="251.061" cy="259.75" r="19.99"></circle>
			<path d="M490.117,0.896c-1.542,0.063-38.316,1.715-87.065,15.28c-64.917,18.063-120.634,49.015-161.129,89.508     c-26.16,26.16-51.087,58.345-71.994,88.294l-19.142-19.142c-14.74-14.741-34.337-22.92-55.183-23.032     c-0.145,0-0.289-0.001-0.434-0.001c-20.656,0-40.147,7.938-54.934,22.38L0.187,212.77v37.984h22.765     c21.227,0,41.181,8.27,56.182,23.282l158.798,159.012c15.016,15.003,23.286,34.958,23.286,56.186v22.765h37.984l38.587-40.051     c14.544-14.89,22.491-34.55,22.379-55.367c-0.112-20.845-8.291-40.442-23.031-55.182l-19.27-19.27     c29.893-21.015,62.064-46.047,88.26-72.243c40.494-40.495,71.445-96.212,89.508-161.128     c13.564-48.749,15.216-85.523,15.28-87.065L511.812,0L490.117,0.896z M125.172,263.561l-17.754-17.778     c-14.716-14.729-32.599-25.141-52.115-30.598l12.726-12.261l0.112-0.109c15.07-14.75,39.464-14.618,54.374,0.292l24.735,24.735     C138.441,241.536,130.955,253.808,125.172,263.561z M309.157,444.045l-12.37,12.839c-5.456-19.514-15.864-37.394-30.583-52.1     l-17.654-17.678c9.692-5.809,21.912-13.335,35.558-22.19l24.757,24.755C323.777,404.581,323.908,428.973,309.157,444.045z      M377.855,241.617c-50.579,50.579-128.001,98.335-158.483,116.27l-64.978-65.065c17.767-30.56,65.168-108.235,115.799-158.867     c28.245-28.245,61.559-47.779,92.438-61.201l76.423,76.423C425.634,180.056,406.1,213.372,377.855,241.617z M456.835,99.054     c-0.799,2.844-1.662,5.78-2.58,8.784l-50.282-50.282c3.003-0.918,5.94-1.78,8.784-2.579c22.104-6.211,41.661-9.735,55.789-11.711     C466.569,57.395,463.045,76.95,456.835,99.054z"></path>
			<circle cx="306.034" cy="205.776" r="19.99"></circle>
			<circle cx="362.006" cy="150.805" r="19.99"></circle>
		</g>
	</g>
</g>
</svg>