<svg xmlns="http://www.w3.org/2000/svg" viewBox="0 0 24 24"><path d="m12 14c-1.103 0-2-.897-2-2s.897-2 2-2 2 .897 2 2-.897 2-2 2zm0-2.5c-.275 0-.5.224-.5.5s.225.5.5.5.5-.224.5-.5-.225-.5-.5-.5z"></path><path d="m12 16.5c-2.754 0-5.33-1.537-6.892-4.111-.145-.239-.145-.539 0-.777 1.562-2.575 4.138-4.112 6.892-4.112s5.33 1.537 6.892 4.111c.145.239.145.539 0 .777-1.562 2.575-4.138 4.112-6.892 4.112zm-5.357-4.5c1.299 1.887 3.271 3 5.357 3s4.059-1.113 5.357-3c-1.298-1.887-3.271-3-5.357-3s-4.059 1.113-5.357 3z"></path><path d="m12 22c-5.514 0-10-4.486-10-10s4.486-10 10-10 10 4.486 10 10-4.486 10-10 10zm0-18.5c-4.687 0-8.5 3.813-8.5 8.5s3.813 8.5 8.5 8.5 8.5-3.813 8.5-8.5-3.813-8.5-8.5-8.5z"></path><path d="m12 4.435c-.414 0-.75-.336-.75-.75v-2.935c0-.414.336-.75.75-.75s.75.336.75.75v2.935c0 .414-.336.75-.75.75z"></path><path d="m12 24c-.414 0-.75-.336-.75-.75v-2.935c0-.414.336-.75.75-.75s.75.336.75.75v2.935c0 .414-.336.75-.75.75z"></path><path d="m23.25 12.75h-2.935c-.414 0-.75-.336-.75-.75s.336-.75.75-.75h2.935c.414 0 .75.336.75.75s-.336.75-.75.75z"></path><path d="m3.685 12.75h-2.935c-.414 0-.75-.336-.75-.75s.336-.75.75-.75h2.935c.414 0 .75.336.75.75s-.336.75-.75.75z"></path></svg>