<?xml version="1.0" standalone="no"?>
<!DOCTYPE svg PUBLIC "-//W3C//DTD SVG 20010904//EN"
 "http://www.w3.org/TR/2001/REC-SVG-20010904/DTD/svg10.dtd">
<svg version="1.0" xmlns="http://www.w3.org/2000/svg"
 width="1919.000000pt" height="36.000000pt" viewBox="0 0 1919.000000 36.000000"
 preserveAspectRatio="xMidYMid meet">

<g transform="translate(0.000000,36.000000) scale(0.100000,-0.100000)"
fill="#000000" stroke="none">
<path d="M1 206 l1 -153 39 4 c34 4 38 3 33 -14 -5 -17 -5 -17 6 0 13 21 110
25 110 5 0 -7 5 -5 11 5 6 9 15 15 20 12 5 -4 7 -11 4 -16 -4 -5 1 -9 9 -9 9
0 16 5 16 10 0 17 18 11 23 -7 3 -14 6 -11 11 10 5 15 15 27 25 27 14 0 14 -2
1 -10 -9 -6 -10 -10 -3 -10 6 0 15 5 18 10 5 8 11 7 21 -1 12 -10 14 -10 12 1
-2 7 3 15 10 17 6 3 12 -1 12 -7 0 -10 3 -10 14 -1 16 13 82 5 92 -10 9 -16
24 1 17 19 -5 14 -3 14 17 -3 20 -17 23 -18 17 -3 -4 12 -1 18 8 18 8 0 15 -4
15 -10 0 -5 9 -10 20 -10 11 0 19 -6 18 -12 -3 -13 -1 -13 192 -8 65 1 94 -1
93 -9 -2 -6 4 -11 12 -11 8 0 15 4 15 9 0 4 26 11 57 14 44 5 64 2 82 -10 21
-13 23 -13 18 -1 -5 13 19 15 171 15 98 0 205 3 240 7 43 4 61 3 57 -4 -3 -5
0 -10 9 -10 8 0 16 5 18 11 2 7 12 7 31 0 18 -7 36 -7 53 0 15 5 29 7 32 5 2
-3 14 -1 26 5 20 9 20 9 3 -4 -12 -10 -15 -17 -7 -22 6 -4 17 -1 25 5 8 7 40
13 72 14 32 2 68 6 81 10 16 5 22 4 20 -6 -2 -7 3 -11 12 -9 8 3 34 6 57 9 23
2 47 10 54 18 14 17 29 18 29 3 0 -5 -5 -7 -12 -3 -8 5 -9 2 -5 -10 4 -10 7
-20 7 -22 0 -10 29 -3 33 8 3 10 9 11 26 1 28 -17 31 -16 31 7 0 12 7 20 18
20 13 0 14 -2 3 -9 -11 -7 -10 -11 7 -20 26 -14 72 -14 107 -1 15 6 32 7 38 3
15 -10 210 -3 217 7 3 4 15 12 28 19 12 7 20 17 16 23 -5 8 7 9 42 4 27 -4 63
-7 81 -6 17 0 34 -4 38 -10 3 -5 11 -10 17 -10 7 0 6 6 -2 15 -11 13 -6 15 34
15 26 0 45 -4 42 -9 -8 -12 48 0 56 13 6 8 8 8 8 0 0 -6 22 -12 51 -13 32 -1
48 2 44 9 -8 12 -9 12 44 -4 27 -7 59 -10 82 -6 21 4 43 4 50 -1 7 -4 20 -4
30 1 9 5 18 7 21 5 5 -6 127 -6 209 -1 36 2 72 0 80 -5 10 -6 6 -9 -16 -11
-16 -1 -39 -2 -50 -3 -11 -1 -39 -3 -62 -4 -24 0 -43 -6 -43 -12 0 -10 39 -9
75 1 6 1 61 2 123 1 88 -1 111 -4 106 -14 -6 -9 -4 -9 7 -1 8 6 30 12 49 12
24 1 30 -2 20 -8 -11 -7 0 -10 33 -10 26 0 47 -4 47 -9 0 -4 23 -4 51 0 53 8
109 29 109 40 0 4 10 9 21 12 15 4 20 11 17 25 -4 16 -1 18 15 14 14 -3 18 -1
13 6 -4 7 -2 12 3 12 6 0 11 -5 11 -11 0 -7 10 -9 24 -7 18 4 22 1 19 -12 -4
-15 9 -16 127 -12 119 4 133 2 145 -15 13 -17 14 -17 15 0 0 20 39 24 59 4 9
-8 12 -8 7 0 -11 20 33 26 61 8 19 -13 25 -14 21 -4 -5 12 27 14 181 15 102 1
201 4 219 6 17 3 32 1 32 -3 0 -5 9 -9 21 -9 13 0 18 4 13 12 -5 8 -2 9 12 3
24 -11 50 -11 94 -2 21 4 30 3 21 -2 -9 -6 -10 -10 -2 -16 7 -4 17 -2 24 3 18
14 155 22 160 8 3 -8 12 -7 30 3 14 7 32 11 40 8 8 -3 25 1 36 10 12 8 25 12
28 9 4 -3 1 -6 -5 -6 -18 0 -14 -20 4 -27 9 -3 20 0 24 7 5 9 14 10 26 4 23
-10 554 -12 554 -1 0 4 -12 7 -27 7 -16 0 -35 4 -43 10 -8 5 -17 5 -20 1 -3
-5 -23 -5 -45 -1 -39 7 -39 8 -7 9 17 0 32 6 32 11 0 12 50 13 69 1 9 -6 22
-6 34 0 14 8 23 7 36 -5 20 -19 41 -22 23 -4 -26 26 -27 26 141 15 55 -4 76
-3 71 5 -5 7 -2 8 7 2 20 -12 369 -15 369 -3 0 6 5 7 12 3 7 -4 29 -7 49 -5
21 1 40 -3 44 -9 5 -7 0 -11 -11 -10 -33 4 -55 0 -51 -8 3 -4 46 -7 96 -6 50
0 91 -3 91 -7 0 -4 16 -3 35 1 19 4 35 4 37 -1 2 -5 17 -11 33 -12 17 -1 32
-5 35 -9 3 -3 28 -2 55 3 27 5 56 7 63 4 7 -3 11 -1 8 4 -3 4 18 8 47 7 43 -1
52 -4 51 -18 -1 -10 2 -18 7 -18 5 0 9 5 9 11 0 5 4 7 10 4 6 -3 7 1 4 9 -5
13 1 16 29 16 38 0 60 -26 27 -32 -17 -3 -16 -5 6 -15 23 -11 27 -10 31 8 6
20 14 21 57 3 14 -5 17 -4 12 4 -11 18 5 15 26 -5 18 -16 18 -16 12 0 -4 12
-1 17 11 17 9 0 13 -4 10 -10 -12 -19 8 -10 28 13 12 13 18 16 15 6 -4 -9 2
-20 13 -27 19 -12 25 -5 20 22 -1 5 5 4 13 -4 13 -10 16 -10 16 3 0 13 4 13
25 4 14 -7 25 -18 25 -24 0 -18 10 -16 26 4 12 15 13 16 8 2 -5 -15 7 -16 114
-13 101 3 121 1 126 -12 3 -8 10 -12 16 -9 6 4 7 11 4 17 -5 7 5 9 30 4 24 -5
43 -3 52 5 11 9 19 8 39 -5 30 -20 36 -20 29 -1 -5 12 3 14 48 9 29 -3 58 -7
65 -9 7 -2 14 -1 17 3 5 9 144 7 174 -2 13 -5 22 -3 22 3 0 7 26 9 70 8 39 -2
70 0 70 5 0 5 14 2 30 -7 17 -9 30 -11 30 -5 0 14 43 13 58 -2 9 -9 17 -9 34
0 28 13 148 21 148 10 0 -17 95 4 132 28 20 13 39 20 42 15 3 -5 -5 -12 -19
-15 -14 -4 -25 -11 -25 -17 0 -16 31 -23 40 -9 6 10 12 11 22 3 17 -13 398
-14 398 -1 0 5 4 7 9 4 5 -4 31 -8 57 -11 26 -2 51 -8 56 -13 6 -6 28 -7 51
-4 35 4 39 3 34 -11 -7 -19 -2 -20 28 -7 14 6 15 9 5 10 -12 0 -12 2 2 10 22
14 72 -5 65 -24 -3 -8 0 -20 8 -26 10 -9 15 -6 20 10 7 21 35 24 63 7 7 -5 12
-5 11 0 -3 20 2 25 15 14 10 -8 16 -9 21 -1 3 5 14 10 23 10 13 0 14 -2 3 -9
-11 -7 -11 -10 0 -17 7 -4 14 -3 17 4 6 18 39 14 46 -5 6 -14 9 -15 16 -4 4 8
6 21 3 30 -3 12 -2 12 7 -1 13 -22 34 -24 26 -3 -3 9 0 15 9 15 8 0 15 -4 15
-10 0 -5 9 -10 20 -10 11 0 19 -5 18 -11 -3 -13 28 -14 192 -8 66 2 95 0 95
-8 0 -6 3 -15 8 -19 4 -4 7 0 7 9 0 9 3 17 8 17 4 1 33 2 65 5 40 2 61 -1 71
-11 19 -18 30 -18 22 1 -5 13 3 15 44 13 28 -2 50 -6 50 -9 0 -3 11 -4 25 -1
14 2 25 8 25 12 0 4 15 5 33 0 34 -7 140 -6 240 4 37 4 56 2 52 -4 -3 -6 0
-10 9 -10 8 0 16 5 18 11 2 7 12 7 31 0 18 -7 36 -7 53 0 21 7 31 6 45 -7 15
-13 22 -14 33 -5 8 7 44 14 79 15 35 2 69 6 75 10 7 4 12 1 12 -9 0 -13 5 -15
18 -9 9 4 35 9 57 12 22 2 51 13 64 23 13 11 31 19 40 18 10 0 6 -4 -9 -10
-31 -13 -32 -13 -24 -33 7 -19 30 -21 37 -3 3 9 9 9 26 0 28 -17 31 -16 31 6
0 23 16 36 25 21 3 -5 1 -10 -6 -10 -8 0 -9 -3 0 -13 13 -17 81 -20 116 -7 15
6 32 7 38 3 17 -11 211 -3 215 8 3 6 9 6 16 0 13 -11 193 -17 203 -7 3 3 -18
6 -48 6 -33 0 -63 6 -75 15 -25 19 -35 19 -27 -1 4 -12 2 -15 -8 -12 -8 3 -15
15 -15 27 -1 21 2 22 40 17 22 -4 58 -6 79 -6 20 0 37 -4 37 -10 0 -5 7 -10
16 -10 14 0 14 3 4 15 -11 13 -7 15 29 15 22 0 41 -4 41 -9 0 -5 15 -6 33 -2
17 4 56 6 86 3 36 -2 51 0 47 7 -9 14 -4 14 31 0 15 -6 62 -10 103 -10 84 1
191 0 199 -1 3 -1 35 2 71 6 39 5 75 4 90 -3 l25 -10 -30 -2 c-16 -1 -37 -3
-45 -4 -8 -1 -34 -3 -57 -4 -24 0 -43 -6 -43 -12 0 -7 13 -9 38 -5 60 9 257 6
260 -5 2 -5 9 -6 15 -2 17 11 68 12 61 2 -3 -5 13 -9 35 -9 22 0 42 -4 45 -9
11 -17 166 20 166 40 0 4 10 9 21 12 16 4 20 11 16 26 -3 13 -1 19 5 15 6 -4
14 0 19 7 8 12 10 12 18 0 5 -8 18 -12 29 -9 15 4 18 1 15 -12 -4 -15 3 -17
49 -15 165 8 213 7 211 -4 -2 -6 4 -11 12 -11 8 0 15 4 15 10 0 5 15 9 33 9
17 -1 41 2 53 6 14 4 27 1 37 -9 19 -19 31 -21 24 -3 -4 11 26 13 152 12 86
-1 183 1 216 5 33 4 62 3 63 -1 5 -12 32 -11 32 1 0 6 9 6 24 1 14 -6 39 -6
62 0 49 11 63 11 45 0 -10 -6 -10 -10 -1 -16 6 -4 17 -2 23 4 6 6 33 11 60 11
26 0 57 5 67 10 14 8 21 6 28 -6 7 -13 13 -14 30 -5 11 6 34 11 51 11 16 0 33
5 36 10 3 6 12 10 18 10 8 0 7 -3 -2 -9 -16 -10 -6 -31 14 -31 7 0 15 5 17 11
3 9 10 9 23 2 13 -7 89 -9 205 -7 188 5 208 5 293 0 55 -2 73 10 24 16 -17 3
-41 9 -51 13 -13 6 -17 5 -12 -3 4 -7 -5 -9 -31 -5 -49 8 -55 13 -14 13 19 0
30 4 26 10 -8 13 55 13 74 1 9 -6 22 -6 34 0 14 8 23 6 38 -7 10 -9 22 -14 25
-11 4 4 -1 9 -10 13 -9 3 -16 9 -16 13 0 7 37 6 163 -2 44 -4 75 -2 72 3 -3 5
7 5 22 1 35 -10 353 -13 353 -3 0 10 93 2 105 -10 7 -6 3 -9 -10 -8 -34 4 -56
0 -52 -8 3 -4 46 -7 96 -6 50 1 91 -2 91 -6 0 -5 16 -4 35 0 19 4 33 4 30 0
-6 -10 51 -24 64 -16 5 4 11 2 13 -3 2 -6 22 -6 53 0 27 5 56 7 63 4 7 -3 11
-1 8 4 -3 5 16 7 42 6 66 -4 65 -3 58 -20 -3 -8 -1 -15 4 -15 6 0 10 5 10 11
0 5 4 7 10 4 6 -3 7 1 4 10 -6 14 -1 16 26 13 35 -3 52 -24 26 -30 -11 -2 -8
-7 10 -15 23 -11 27 -10 31 8 5 19 13 19 62 1 9 -3 12 -1 7 6 -11 18 4 14 28
-6 20 -16 20 -16 7 0 -12 16 -11 18 8 18 12 0 19 -4 16 -10 -3 -5 -1 -10 4
-10 6 0 11 4 11 10 0 6 9 6 26 0 33 -13 34 -13 34 6 0 14 3 14 15 4 12 -10 15
-9 15 6 1 17 2 17 13 4 15 -19 63 -27 52 -9 -5 8 -4 10 3 5 7 -4 12 -13 12
-20 0 -9 29 -12 121 -9 71 2 118 0 115 -6 -3 -5 1 -11 9 -15 9 -3 15 1 15 10
0 13 7 15 36 10 22 -5 41 -3 50 5 11 9 19 8 39 -5 30 -20 36 -20 29 -1 -5 12
1 14 37 10 24 -3 47 -11 51 -18 6 -9 8 -9 8 2 0 7 6 11 14 8 8 -3 16 -3 19 0
10 10 177 8 177 -2 0 -5 4 -5 8 2 5 8 31 12 76 10 37 -1 70 1 72 5 3 5 14 3
24 -2 11 -6 31 -8 46 -4 15 4 36 1 51 -7 21 -11 27 -11 30 -2 3 9 26 13 64 13
38 0 58 -4 54 -10 -3 -6 1 -10 10 -10 11 0 15 5 11 15 -3 8 -1 15 4 15 6 0 10
-4 10 -10 0 -14 90 -1 120 18 23 14 24 14 12 0 -10 -13 -10 -17 4 -22 23 -9
36 -7 29 4 -3 5 1 10 9 10 8 0 17 -4 20 -8 7 -12 385 -12 392 -1 3 5 10 6 16
3 15 -10 138 -14 138 -6 0 4 -14 9 -32 10 -17 2 -37 7 -44 13 -8 7 -13 6 -16
-2 -2 -7 -9 -9 -16 -5 -6 3 -8 14 -5 22 4 12 14 14 42 9 20 -3 50 -6 68 -5 18
0 35 -5 38 -10 3 -6 11 -10 17 -10 7 0 6 6 -2 15 -11 13 -8 15 14 15 l26 0 0
95 0 95 -9595 0 -9596 0 2 -154z m5149 -26 c0 -5 -10 -10 -22 -9 -22 0 -22 1
-3 9 11 5 21 9 23 9 1 1 2 -3 2 -9z m230 0 c0 -5 -10 -10 -22 -10 -19 0 -20 2
-8 10 19 13 30 13 30 0z m60 0 c0 -5 -2 -10 -4 -10 -3 0 -8 5 -11 10 -3 6 -1
10 4 10 6 0 11 -4 11 -10z m9210 0 c0 -5 -10 -10 -22 -9 -22 0 -22 1 -3 9 11
5 21 9 23 9 1 1 2 -3 2 -9z m220 0 c0 -5 -8 -10 -17 -10 -15 0 -16 2 -3 10 19
12 20 12 20 0z m70 0 c0 -5 -4 -10 -10 -10 -5 0 -10 5 -10 10 0 6 5 10 10 10
6 0 10 -4 10 -10z m-9843 -6 c-3 -3 -12 -4 -19 -1 -8 3 -5 6 6 6 11 1 17 -2
13 -5z m407 -16 c-3 -5 -12 -4 -20 3 -19 16 -18 18 6 12 11 -3 17 -9 14 -15z
m9501 1 c-7 -10 -35 -1 -35 11 0 5 9 6 20 3 11 -3 17 -9 15 -14z m-9198 5 c-3
-3 -12 -4 -19 -1 -8 3 -5 6 6 6 11 1 17 -2 13 -5z m3163 -4 c0 -5 -15 -9 -32
-9 l-33 1 30 8 c17 4 31 8 33 9 1 0 2 -3 2 -9z m558 -2 c17 -17 15 -33 -2 -19
-8 7 -15 8 -18 2 -2 -6 -17 -6 -38 -1 -32 7 -32 8 -7 9 15 1 27 6 27 11 0 14
23 13 38 -2z m4122 2 c0 -5 -2 -10 -4 -10 -3 0 -8 5 -11 10 -3 6 -1 10 4 10 6
0 11 -4 11 -10z m1647 4 c-3 -3 -12 -4 -19 -1 -8 3 -5 6 6 6 11 1 17 -2 13 -5z
m3238 -4 c3 -5 -1 -10 -10 -10 -9 0 -13 5 -10 10 3 6 8 10 10 10 2 0 7 -4 10
-10z m-9792 -7 c-7 -2 -19 -2 -25 0 -7 3 -2 5 12 5 14 0 19 -2 13 -5z m351 1
c21 -8 21 -24 0 -24 -8 0 -13 4 -10 9 4 5 0 12 -6 14 -7 3 -10 6 -6 6 3 1 13
-2 22 -5z m9149 -1 c-7 -2 -19 -2 -25 0 -7 3 -2 5 12 5 14 0 19 -2 13 -5z
m215 0 c-10 -2 -26 -2 -35 0 -10 3 -2 5 17 5 19 0 27 -2 18 -5z m138 -4 c3 -6
1 -16 -6 -22 -10 -9 -12 -8 -7 5 4 11 0 18 -11 21 -16 4 -16 5 0 6 9 0 20 -4
24 -10z m-10846 -9 c0 -5 -4 -10 -10 -10 -5 0 -10 5 -10 10 0 6 5 10 10 10 6
0 10 -4 10 -10z m1647 4 c-3 -3 -12 -4 -19 -1 -8 3 -5 6 6 6 11 1 17 -2 13 -5z
m9500 0 c-3 -3 -12 -4 -19 -1 -8 3 -5 6 6 6 11 1 17 -2 13 -5z m-1677 -24 c0
-5 -2 -10 -4 -10 -3 0 -8 5 -11 10 -3 6 -1 10 4 10 6 0 11 -4 11 -10z m-15600
-10 c0 -5 -2 -10 -4 -10 -3 0 -8 5 -11 10 -3 6 -1 10 4 10 6 0 11 -4 11 -10z
m87 4 c-3 -3 -12 -4 -19 -1 -8 3 -5 6 6 6 11 1 17 -2 13 -5z m56 -1 c-7 -2
-19 -2 -25 0 -7 3 -2 5 12 5 14 0 19 -2 13 -5z m243 -2 c-5 -8 -56 -3 -56 5 0
2 14 4 31 4 16 0 28 -4 25 -9z m74 -1 c0 -5 -2 -10 -4 -10 -3 0 -8 5 -11 10
-3 6 -1 10 4 10 6 0 11 -4 11 -10z m9035 0 c3 -5 1 -10 -4 -10 -6 0 -11 5 -11
10 0 6 2 10 4 10 3 0 8 -4 11 -10z m92 4 c-3 -3 -12 -4 -19 -1 -8 3 -5 6 6 6
11 1 17 -2 13 -5z m56 -1 c-7 -2 -19 -2 -25 0 -7 3 -2 5 12 5 14 0 19 -2 13
-5z m239 -2 c-12 -7 -62 -4 -62 5 0 2 17 4 38 4 23 0 32 -3 24 -9z m188 5 c0
-3 -4 -8 -10 -11 -5 -3 -10 -1 -10 4 0 6 5 11 10 11 6 0 10 -2 10 -4z m-480
-36 c0 -5 -5 -10 -11 -10 -5 0 -7 5 -4 10 3 6 8 10 11 10 2 0 4 -4 4 -10z
m-1043 -6 c-3 -3 -12 -4 -19 -1 -8 3 -5 6 6 6 11 1 17 -2 13 -5z"/>
<path d="M6365 160 c3 -5 8 -10 11 -10 2 0 4 5 4 10 0 6 -5 10 -11 10 -5 0 -7
-4 -4 -10z"/>
<path d="M6610 160 c-20 -6 -22 -9 -9 -14 15 -7 69 8 69 19 0 7 -29 5 -60 -5z"/>
<path d="M16113 163 c-13 -2 -23 -9 -23 -15 0 -12 59 -3 74 12 10 10 -8 11
-51 3z"/>
<path d="M6030 140 c0 -5 5 -10 10 -10 6 0 10 5 10 10 0 6 -4 10 -10 10 -5 0
-10 -4 -10 -10z"/>
<path d="M6085 140 c3 -5 11 -10 16 -10 6 0 7 5 4 10 -3 6 -11 10 -16 10 -6 0
-7 -4 -4 -10z"/>
<path d="M15530 139 c0 -5 5 -7 10 -4 6 3 10 8 10 11 0 2 -4 4 -10 4 -5 0 -10
-5 -10 -11z"/>
<path d="M15585 140 c3 -5 8 -10 11 -10 2 0 4 5 4 10 0 6 -5 10 -11 10 -5 0
-7 -4 -4 -10z"/>
<path d="M5235 130 c-3 -5 -1 -10 4 -10 6 0 11 5 11 10 0 6 -2 10 -4 10 -3 0
-8 -4 -11 -10z"/>
<path d="M14735 130 c-3 -5 -1 -10 4 -10 6 0 11 5 11 10 0 6 -2 10 -4 10 -3 0
-8 -4 -11 -10z"/>
<path d="M8835 110 c-3 -5 -1 -10 4 -10 6 0 11 5 11 10 0 6 -2 10 -4 10 -3 0
-8 -4 -11 -10z"/>
<path d="M2590 97 c0 -10 -8 -13 -25 -9 -14 2 -25 0 -25 -6 0 -12 176 -21 194
-10 6 4 -14 8 -44 8 -34 0 -64 6 -78 16 -18 13 -22 13 -22 1z"/>
<path d="M3068 93 c7 -3 16 -2 19 1 4 3 -2 6 -13 5 -11 0 -14 -3 -6 -6z"/>
<path d="M12568 93 c7 -3 16 -2 19 1 4 3 -2 6 -13 5 -11 0 -14 -3 -6 -6z"/>
<path d="M9725 79 c-4 -6 -5 -12 -2 -15 2 -3 7 2 10 11 7 17 1 20 -8 4z"/>
<path d="M420 70 c0 -5 5 -10 10 -10 6 0 10 5 10 10 0 6 -4 10 -10 10 -5 0
-10 -4 -10 -10z"/>
<path d="M1860 59 c0 -5 5 -7 10 -4 6 3 10 8 10 11 0 2 -4 4 -10 4 -5 0 -10
-5 -10 -11z"/>
<path d="M11355 60 c-3 -5 -2 -10 4 -10 5 0 13 5 16 10 3 6 2 10 -4 10 -5 0
-13 -4 -16 -10z"/>
<path d="M1468 53 c7 -3 16 -2 19 1 4 3 -2 6 -13 5 -11 0 -14 -3 -6 -6z"/>
</g>
</svg>
