<svg xmlns="http://www.w3.org/2000/svg" xmlns:xlink="http://www.w3.org/1999/xlink" width="1920" height="33" viewBox="0 0 1920 33">
  <defs>
    <style>
      .cls-1 {
        fill-rule: evenodd;
        filter: url(#filter);
      }
    </style>
    <filter id="filter" x="1" y="0" width="1919" height="33" filterUnits="userSpaceOnUse">
      <feFlood result="flood" flood-color="#f2f2f2"/>
      <feComposite result="composite" operator="in" in2="SourceGraphic"/>
      <feBlend result="blend" in2="SourceGraphic"/>
    </filter>
  </defs>
  <path id="Shape_322_1" data-name="Shape 322 1" class="cls-1" d="M1,0H1920V19h-5v1a6.165,6.165,0,0,1,2,2h-2c-2.37-2.57-9.4-3.02-15-3v2c-0.25.968-.78,0.379,0,1,1.36,0.806,9.5-.184,11,3h-3c-8.78-4.27-31.5,2.087-48-1,0.17-3.256,1.77-3.035-3-4v1c2.08,0.372,1.92.242,3,1-0.86,1.883-.47.738,0,3h-3c-1.57-1.828-.88-1.4-4-2-0.38,2.617.74,1.31-2,2-1.02-.8-0.27-0.355-2-1a2.832,2.832,0,0,1,1-1c0.33-.667.67-1.333,1-2h-1c-3.42,4.508-10.95,3.519-15,2,0.01,3.166,1.42,1.869-2,3-0.47-2.87-5.14-2.218-11-2-1.94,2.472-11.29.317-15-1-7.47,3.865-39.72,2.074-47,1,0.01,3.162,1.69,1.345-1,3-3.1-3.705-7.59-1.813-14-2-0.37,2.076-.24,1.924-1,3-1.02-.8-0.27-0.355-2-1-0.38-2.617.74-1.31-2-2-3.96,2.232-16.65-.983-19-2v1a6.165,6.165,0,0,1,2,2h-4c-0.37-2.076-.24-1.924-1-3a2.832,2.832,0,0,0-1-1c-0.38,2.617.74,1.31-2,2a37.106,37.106,0,0,0-4-3c-0.37,2.076-.24,1.924-1,3a6.107,6.107,0,0,0-2-2c-0.83,3.245.49,1.528-2,3-3.32-2.275-2.76-1.162-6,0-0.39-2.53.58-1.578-3-2-1.55.707-.14,0.129-3,0v1h1c1.92,0.775-2,1-2,1a11.688,11.688,0,0,0-5-2,12.527,12.527,0,0,1-1,4,30.863,30.863,0,0,1-5-3c3.25-.828,1.53.49,3-2a21.477,21.477,0,0,0-7-1c-0.83,2.963-.44,2.733-3,4,0.39-2.933,1.64-1.253-1-3-2.51-1.34-23.4.573-29,0,0.33-.667.67-1.333,1-2h-1c-0.51.347-21.89,1.291-24,0h-1V19c3.34-.149,4.91.317,7-1-2.45-.85-6.18-1.039-10-1,0,0-9.69,1.331-14,1-7.09-.544-17.06,1.006-25-2-0.28,2.588.47,1.775-4,2-6.56-4.362-20.69-.065-24,1-2.72.874-9.01-3.665-15,1a34.071,34.071,0,0,1,8,1V20h-1c-1.92-.775,2-1,2-1,1.91,1.634,5.78,1.534,8,3h-1c-3.9,1.757-10.4-.947-15-1-0.13,0-3.41,1.973-4,2-11.64.529-29.45-1.976-41,0-0.33-1-.67-2-1-3,1.75-.631.97-0.193,2-1-4.02,1.1-9.81,2.918-14,4-0.33-1-.67-2-1-3-3.23,1.476-15.24,3.727-17,3h-1V22c1.75-.631.97-0.193,2-1-19.43,2.293-37.62,1.583-61,1,0.39,2.933,1.64,1.253-1,3-2.63-5.192-11.18-1.218-16,0,0.29-2.457.66-.482,0-3-9.43,3.02-19.57.921-26,2,0.07-3.042.76-2.744,0-4-1.32.756-8.05,0.29-9,0,0.52,2.206,1.13,1.984,0,4-8,7.3-16.25,5.319-28,5V28h1c1.92-.775-2-1-2-1-3.37,1.882-16.13.077-27,0-0.33-.667-0.67-1.333-1-2,2.99,0.417,6.15,1.045,9-1-19.52-2.118-34.97,1.842-52-2-0.29,2.646-.83,2.093-6,2-1.38-.686-11.97-1.1-18-1v1a6.165,6.165,0,0,1,2,2h-3c-1.17-1.826-10.97-3.142-16-3a2.832,2.832,0,0,0,1,1c-0.4,2.266-.92,1.084,0,3,1.02,0.8.27,0.355,2,1-0.01-3.162-1.69-1.345,1-3,3.28,3.9,9.48,1.247,14,4h-2c-2.67,1.073-17,.326-20-2-3.02,4.873-22.06.848-24,1l-3,2a14.513,14.513,0,0,1-9-1,6.165,6.165,0,0,1-2-2c1.75-.631.97-0.193,2-1h-1V25h-1v1c-1.44,1.85-.71,2.683-3,4-2.95-3.042-2.85-.975-7,0-0.63-1.754-.19-0.971-1-2V26a10.962,10.962,0,0,0,5-2c-5.81.869-12.6,4.324-19,6-0.37-2.076-.24-1.924-1-3-3.08,2.276-9.81,3.011-14,1-2.25,1.426-1.11,3.431-4,2h-1V29c2.47-1.295.68,0.429,2-2h-1c-4.47,4.753-8.71-.1-14,1-1.73,1.517.47,1.471-3,2-0.38-2.617.74-1.31-2-2-6.38,3.558-36.26,1.3-45,1,0.39,2.933,1.64,1.253-1,3-2.13-4.269-11.1-2.605-15-2-0.37,2.076-.24,1.924-1,3V32c-0.84-1.2-.36-0.919-1-3-8.43,1.732-25.03,2.779-28,1-1.8-1.325.46-1.646-4-2-1.46-2.543.22-1.128-3-2,0.39,2.933,1.64,1.253-1,3a10.953,10.953,0,0,0-2-3c0.27,3.33.37,1.66,0,5h-1c-3-4.732-4.127-.935-7-2h-1V28c1.754-.631.971-0.193,2-1-7.518,1.05-6.5,1.577-14,1-0.587,2.245-.748,2.655-2,4V31c-2.224-2-.944-1.961-2-5-3.2-.257-3.191-0.994-5,0h-2c0.74,0.872,1.26,1.128,2,2l-5,1c0-3.337.679-3.134-5-3-1.485.631-13.766-3.717-15-3-7.575,4.4-36.177.59-45,2l-1-3a10.971,10.971,0,0,0,5-2h-1V19c-3.244,1.931-10.526,8.2-17,6V23c-0.4-.172-11.992.358-14,1-3.884,1.243-12.085,1.95-16-1-3.1,2.47-4.909-.073-11,1-8.008,1.41-25.764,1.457-36,0,0.008,3.162,1.694,1.345-1,3-3.105-3.705-7.585-1.813-14-2,0.287,2.457.659,0.482,0,3-5.834-3.909-15.136-2.355-26-2,0.058-2.906.964-1.389,0-3-1.183,2.067-.684,1.882-3,3V23c-3.188-.506-2.92-0.872-5-2-0.372,2.076-.242,1.924-1,3a6.1,6.1,0,0,0-2-2c0.34,2.422.327,0.883,0,4h-1V25c-3.428-2.069-1.207-1.535-3-4-1.041,2.553-1.483,2.925-4,4-0.384-2.617.743-1.31-2-2-1.25,3.177-.717.617-4,0v1h1c1.923,0.775-2,1-2,1-1.624-1.495-2.023-1.552-5-2a12.662,12.662,0,0,1-1,4,31.036,31.036,0,0,1-5-3c2.328-.2,2.826-0.193,4-1-2.336-1.643-3.42-2.015-8-2-0.829,2.963-.443,2.733-3,4,0.186-3.416,1.446-3.588-4-4-8.661,4.777-29.449-.035-34-1-3.869-.821-13.359,2.206-16,0h-1V19c3.34-.149,4.911.317,7-1a21.512,21.512,0,0,0-7-1c-4.079,1.491-33.686,2.382-42-1-0.278,2.588.466,1.775-4,2-4.687-3.251-16.516,1.058-18-2v2a6.107,6.107,0,0,1,2,2h-2c-2.231-3.077-15.626-3.97-21,0,9.229,0.112,7.644.783,17,1v2h-3c-4.622-2.935-11.342.6-17,0-10.108-1.069-31.043-1.957-41,0l-1-3c1.754-.631.971-0.193,2-1-2.128.649-3.576,2.733-5,3l-27,1h-1V22c1.754-.631.971-0.193,2-1-6.2,1.352-8.519,1.391-14,0-0.387,2.53.581,1.578-3,2-2.366-4.057-8.887,1.145-16,0-8.384-1.349-16.261-.9-28-1,0.4,2.266.918,1.084,0,3-3.306-4.17-7.938-2.156-14-2-0.372,2.076-.242,1.924-1,3-3.249-5.406-25.349-2.523-28-2,0.075-3.042.756-2.744,0-4-2.986,1.726-3.209.059-6-1-0.384,2.617.743,1.31-2,2V20h-1c0.518,2.206,1.128,1.984,0,4-5.009,4.647-20.86,9.351-28,4,1.754-.631.971-0.193,2-1-7.054.41-18.135-.006-30,0l-1-2c3.3,0.59,7.024,1.152,10-1-15.971-2.657-35.736,1.9-53-2-0.287,2.646-.825,2.093-6,2-2.174-1.29-9.266-1-18-1v1a6.107,6.107,0,0,1,2,2h-2c-2.7-2.965-10.734-3.072-17-3-0.11,6.775-11.778,6.4-22,6-0.565.293-14.72,0.914-19,0l-1-2c1.754-.631.971-0.193,2-1h-3v4h-2c-2.945-3.042-2.849-.975-7,0q-0.5-2-1-4h1v1c0.775,1.923,1-2,1-2h-2c-1.867,2.707-11.36,4.785-13,4-2.031-1.638.7-1.166-2-2-1.74,1.25-18,3-18,3h-1V29c2.389-.842,1.645-0.4,3-2h-1c-5.2,4.352-9.417-.1-15,1-1.744,1.534.452,1.425-3,2-0.384-2.617.743-1.31-2-2-8.092,4.063-32.079,1.227-45,1,0.4,2.266.918,1.084,0,3-4.037-5.206-12.252-1.432-18,0,0.287-2.457.659-.482,0-3-7.77,2.694-25.293,2.431-28,1-1.8-1.325.458-1.646-4-2-1.456-2.543.217-1.128-3-2,0.4,2.266.918,1.084,0,3a8.893,8.893,0,0,0-3-3c0.174,3.147.516,1.5,0,4-8.892-4.83-13.43-1.564-21-2l-1,5H28c-0.828-3.245.49-1.528-2-3-1.456,2.542.217,1.128-3,2,0.287-2.457.659-.482,0-3-2.147,1.305-21.091,2.779-22,0C2.632,24.445,1.093,8.146,1,0ZM515,17c-0.771.682-2.232,1.311-3,2h4C515.369,17.246,515.807,18.029,515,17Zm22,0c-1.021.8-.274,0.355-2,1v1h4V17h-2Zm6,0c1.66,1.116,1.069,1.77,2,0h-2Zm922,0c-0.77.682-2.23,1.311-3,2h4C1465.37,17.246,1465.81,18.029,1465,17Zm22,0c-1.02.8-.27,0.355-2,1v1h3C1487.37,17.246,1487.81,18.029,1487,17Zm6,0v2h2V17h-2ZM508,18c1.72,0.881,1.278.889,3,0h-3Zm40,0c0.4,0.56,3.7,4.856,4,2C552,20,548.4,18.221,548,18Zm137,0c1.021,0.8.274,0.355,2,1C685.979,18.2,686.726,18.645,685,18Zm765,0c1.02,0.8.27,0.355,2,1C1450.98,18.2,1451.73,18.645,1450,18Zm8,0c1.02,0.8.27,0.355,2,1C1458.98,18.2,1459.73,18.645,1458,18Zm40,0v2c2.91,0.058,1.39.964,3,0h1V19A12.637,12.637,0,0,1,1498,18Zm57,0,3,1v1C1555.61,19.158,1556.36,19.6,1555,18ZM415,19v2h1V19h-1Zm164,0c1.72,0.881,1.278.889,3,0h-3Zm58,0h2C637.812,20.609,638.582,20.224,637,19Zm27,0h4v1h-1c-1.681,1.344-3.143,1.637-6,2l-1-2C662.328,19.8,662.826,19.807,664,19Zm233,0c-1.008.693-4,1.287-5,2h6C897.369,19.246,897.807,20.029,897,19Zm53,0v2c-2.532.074-3.716,0.12-5,1,6.437,0.08,6.665-.546,10,1V21C952.909,19.879,953.168,19.566,950,19Zm414,0c1.66,1.116,1.07,1.77,2,0h-2Zm164,0c1.72,0.881,1.28.889,3,0h-3Zm86,0h4v1h-1c-1.89,1.521-3.59,1.789-7,2V20C1612.33,19.8,1612.83,19.807,1614,19Zm222,0v2h1C1836.37,19.246,1836.81,20.029,1836,19Zm17,0c0.09,1.51-1.93,1.46,0,2h2C1855.17,19.39,1853.45,19.791,1853,19ZM860,20c1.021,0.8.274,0.355,2,1C860.979,20.2,861.726,20.645,860,20Zm8,0c1.021,0.8.274,0.355,2,1C868.979,20.2,869.726,20.645,868,20Zm4,0c1.737,1.077,2.271,1.035,4,0h-4Zm36,0c2.061,2.415.045,2.371,4,3V21Zm902,0c1.02,0.8.27,0.355,2,1C1810.98,20.2,1811.73,20.645,1810,20Zm8,0c1.02,0.8.27,0.355,2,1C1818.98,20.2,1819.73,20.645,1818,20Zm4,0c1.74,1.077,2.27,1.035,4,0h-4Zm20,0a5.291,5.291,0,0,0,6,0h-6Zm21,0c1.02,0.8.27,0.355,2,1C1863.98,20.2,1864.73,20.645,1863,20ZM412,21c1.021,0.8.274,0.355,2,1C412.979,21.2,413.726,21.645,412,21Zm192,0h2v2h-2V21Zm5,0,3,1v1C609.611,22.158,610.355,22.6,609,21Zm165,0v2h2V21h-2Zm164,0c1.72,0.881,1.278.889,3,0h-3Zm424,0c1.02,0.8.27,0.355,2,1C1362.98,21.2,1363.73,21.645,1362,21Zm192,0h2a2.832,2.832,0,0,1-1,1v1C1554.2,21.979,1554.65,22.726,1554,21Zm5,0h2C1559.81,22.609,1560.58,22.224,1559,21Zm165,0v2h1C1724.37,21.246,1724.81,22.029,1724,21Zm164,0c1.72,0.881,1.28.889,3,0h-3Zm6,0c1.02,0.8.27,0.355,2,1C1894.98,21.2,1895.73,21.645,1894,21ZM525,22c0.35,0.3,2,.523,1,2C524.886,23.512,522.886,22.224,525,22Zm950,0c0.35,0.3,2,.523,1,2C1474.89,23.512,1472.89,22.224,1475,22ZM771,23c1.021,0.8.274,0.355,2,1C771.979,23.2,772.726,23.645,771,23Zm98,0c1.021,0.8.274,0.355,2,1C869.979,23.2,870.726,23.645,869,23Zm484,0h2v1C1353.25,23.369,1354.03,23.807,1353,23Zm318,0h2v1C1671.25,23.369,1672.03,23.807,1671,23Zm148,0c1.02,0.8.27,0.355,2,1C1819.98,23.2,1820.73,23.645,1819,23ZM161,24c1.66,1.116,1.069,1.77,2,0h-2Zm8,0c1.72,0.881,1.278.889,3,0h-3Zm5,0c1.737,1.077,2.271,1.035,4,0h-4Zm22,0c1.747,1.264,4.107,1.5,5,1h1V24h-6Zm11,0c1.66,1.116,1.069,1.77,2,0h-2Zm12,0v2h1C219.369,24.246,219.807,25.029,219,24Zm206,0c0.8,1.021.355,0.274,1,2h-1V24Zm460,0c0.35,0.3,2,.523,1,2C884.886,25.512,882.886,24.224,885,24Zm226,0v2C1112.61,24.812,1112.22,25.582,1111,24Zm8,0c1.72,0.881,1.28.889,3,0h-3Zm5,0c1.74,1.077,2.27,1.035,4,0h-4Zm21,0c2.64,1.85,4.19,1.35,7,1V24h-7Zm23,0v2h1V25h1C1168.98,24.2,1169.73,24.645,1168,24Zm745,0h2v1h-2V24ZM245,25c1.021,0.8.274,0.355,2,1C245.979,25.2,246.726,25.645,245,25Zm7,0c1.021,0.8.274,0.355,2,1C252.979,25.2,253.726,25.645,252,25Zm8,0c1.262,0.683,2.827,2.6,4,3,3.693,1.268,8.356-.683,11,1h-2c-2.008.732-12.69,0.084-18,0V27a14.347,14.347,0,0,1,5,1V25Zm99,0c1.021,0.8.274,0.355,2,1C359.979,25.2,360.726,25.645,359,25Zm404,0h2v1h-2V25Zm432,0c1.02,0.8.27,0.355,2,1C1195.98,25.2,1196.73,25.645,1195,25Zm7,0c1.02,0.8.27,0.355,2,1C1202.98,25.2,1203.73,25.645,1202,25Zm511,0h2v1C1713.25,25.369,1714.03,25.807,1713,25Zm3,0h2v1C1716.25,25.369,1717.03,25.807,1716,25Zm82,0h2v1C1798.25,25.369,1799.03,25.807,1798,25ZM3,26c1.021,0.8.274,0.355,2,1C3.979,26.2,4.726,26.645,3,26Zm66,0c1.021,0.8.274,0.355,2,1C69.979,26.2,70.726,26.645,69,26Zm238,0c2.076,0.372,1.924.242,3,1C307.924,26.628,308.076,26.758,307,26Zm26,0h8v1h-2C336.6,28.744,334.417,28.423,333,26Zm924,0c2.08,0.372,1.92.242,3,1C1257.92,26.628,1258.08,26.758,1257,26Zm26,0h8v1h-2C1286.6,28.744,1284.42,28.423,1283,26ZM962,27h2v1C962.246,27.369,963.029,27.807,962,27Zm766,0h2v1C1728.25,27.369,1729.03,27.807,1728,27ZM43,28h2v2H43V28Zm19,0c1.021,0.8.274,0.355,2,1C62.979,28.2,63.726,28.645,62,28Zm4,0c1.021,0.8.274,0.355,2,1C66.979,28.2,67.726,28.645,66,28Zm212,0h2v1C278.246,28.369,279.029,28.807,278,28Zm695,0c0.8,1.021.355,0.274,1,2h-1V28Zm39,0c1.02,0.8.27,0.355,2,1C1012.98,28.2,1013.73,28.645,1012,28Zm3,0c1.72,0.881,1.28.889,3,0h-3Zm213,0h2v1h-2V28ZM31,29h2v1H31V29Zm156,0h2v1h-1v1C187.2,29.979,187.645,30.726,187,29Zm950,0h2a2.832,2.832,0,0,1-1,1C1137.31,30.132,1136.06,30.053,1137,29ZM147,30c2.076,0.372,1.924.242,3,1C147.924,30.628,148.076,30.758,147,30Zm950,0h2v1h-2V30ZM8,31c0.8,1.021.355,0.274,1,2H8V31Zm6,0c0.8,1.021.355,0.274,1,2H14V31Zm60,0c0.8,1.021.355,0.274,1,2H74V31Zm6,0c0.8,1.021.355,0.274,1,2H80V31Zm949,1h2v1C1029.25,32.369,1030.03,32.807,1029,32Z"/>
</svg>
