<svg width="684" height="145" viewBox="0 0 684 145" fill="none" xmlns="http://www.w3.org/2000/svg">
<path opacity="0.7" d="M57.8054 65.9133H69.4942C81.9328 65.9133 92.0163 75.9969 92.0163 88.4355V88.4355C92.0163 100.874 81.9328 110.958 69.4942 110.958H15.0418" stroke="#0B47F2" stroke-width="29.3236" stroke-linecap="round"/>
<path opacity="0.7" d="M15.0421 20.8633H69.4945C81.9331 20.8633 92.0166 30.9468 92.0166 43.3855V43.3855C92.0166 55.8241 81.9331 65.9076 69.4945 65.9076H57.8057" stroke="#0B47F2" stroke-width="29.3236" stroke-linecap="round"/>
<path opacity="0.7" d="M15.0418 59.4648L15.0418 110.659" stroke="#0B47F2" stroke-width="29.3236" stroke-linecap="round"/>
<path d="M143.32 52.3389H159.162C169.552 52.3389 176.03 47.7209 176.03 38.4208C176.03 33.2897 173.593 29.6979 169.296 27.7096C172.631 25.7213 174.363 22.5785 174.363 18.666C174.363 10.1356 168.334 5.5176 157.943 5.5176H143.32V52.3389ZM158.713 32.4559C165.255 32.4559 167.051 34.4442 167.051 38.2283C167.051 42.0125 164.357 44.1291 159.162 44.1291H152.235V32.4559H158.713ZM158.007 13.7274C163.267 13.7274 165.383 15.2667 165.383 18.666C165.383 21.9371 163.459 24.1178 157.943 24.1178H152.235V13.7274H158.007ZM180.219 52.3389H189.135V5.5176H180.219V52.3389ZM194.555 52.3389H203.471V19.8205L223.995 52.3389H233.488V5.5176H224.572V37.0097L204.689 5.5176H194.555V52.3389ZM238.588 52.3389H251.737C266.039 52.3389 276.109 42.2691 276.109 28.9282C276.109 15.6515 267.194 5.5176 251.352 5.5176H238.588V52.3389ZM250.326 13.7915C261.806 13.7915 267.194 20.0771 267.194 28.9282C267.194 37.5228 260.844 44.065 250.71 44.065H247.503V13.7915H250.326ZM303.195 52.9803C316.536 52.9803 327.183 42.2691 327.183 28.9282C327.183 15.6515 316.536 4.87622 303.195 4.87622C289.918 4.87622 279.271 15.6515 279.271 28.9282C279.271 42.2691 289.918 52.9803 303.195 52.9803ZM303.195 44.1932C294.793 44.1932 288.122 37.3304 288.122 28.9282C288.122 20.5261 294.793 13.6632 303.195 13.6632C311.597 13.6632 318.332 20.5261 318.332 28.9282C318.332 37.3304 311.597 44.1932 303.195 44.1932ZM143.32 124.339H156.468C170.771 124.339 180.841 114.269 180.841 100.928C180.841 87.6515 171.925 77.5176 156.083 77.5176H143.32V124.339ZM155.057 85.7915C166.538 85.7915 171.925 92.0771 171.925 100.928C171.925 109.523 165.576 116.065 155.442 116.065H152.235V85.7915H155.057ZM180.11 124.339H189.41L192.232 116.193H210.191L213.013 124.339H222.313L205.701 77.5176H196.722L180.11 124.339ZM201.212 90.2171L207.241 107.663H195.183L201.212 90.2171ZM241.654 124.98C251.981 124.98 257.881 117.797 257.881 110.357C257.881 101.377 250.698 98.5551 244.348 96.5027C239.345 94.8351 234.856 93.6164 234.856 90.0247C234.856 87.0743 237.1 84.8294 241.269 84.8294C244.925 84.8294 247.683 86.3687 249.607 89.255L256.983 83.6749C253.199 79.7625 248.838 76.8762 241.205 76.8762C232.162 76.8762 225.62 82.8411 225.62 90.3453C225.62 99.3248 232.611 101.762 238.896 103.686C243.899 105.226 248.581 106.444 248.581 110.292C248.581 113.499 246.144 116.45 241.59 116.45C237.421 116.45 233.765 114.141 231.456 110.164L223.311 116.578C227.544 121.388 233.188 124.98 241.654 124.98ZM288.442 124.339H297.357V77.5176H288.442V96.6309H270.804V77.5176H261.889V124.339H270.804V105.161H288.442V124.339ZM302.476 124.339H318.319C328.709 124.339 335.187 119.721 335.187 110.421C335.187 105.29 332.75 101.698 328.452 99.7096C331.788 97.7213 333.519 94.5785 333.519 90.666C333.519 82.1356 327.49 77.5176 317.1 77.5176H302.476V124.339ZM317.87 104.456C324.412 104.456 326.208 106.444 326.208 110.228C326.208 114.013 323.514 116.129 318.319 116.129H311.392V104.456H317.87ZM317.164 85.7274C322.423 85.7274 324.54 87.2667 324.54 90.666C324.54 93.9371 322.616 96.1178 317.1 96.1178H311.392V85.7274H317.164ZM361.696 124.98C375.037 124.98 385.684 114.269 385.684 100.928C385.684 87.6515 375.037 76.8762 361.696 76.8762C348.42 76.8762 337.773 87.6515 337.773 100.928C337.773 114.269 348.42 124.98 361.696 124.98ZM361.696 116.193C353.294 116.193 346.624 109.33 346.624 100.928C346.624 92.5261 353.294 85.6632 361.696 85.6632C370.099 85.6632 376.833 92.5261 376.833 100.928C376.833 109.33 370.099 116.193 361.696 116.193ZM384.991 124.339H394.291L397.113 116.193H415.072L417.894 124.339H427.194L410.582 77.5176H401.603L384.991 124.339ZM406.092 90.2171L412.121 107.663H400.063L406.092 90.2171ZM430.628 124.339H439.544V85.8556H444.29C451.025 85.8556 453.59 88.5495 453.59 93.2316C453.59 96.5668 451.217 101.185 444.29 101.185H439.929L453.975 124.339H464.173L453.526 107.15C459.747 104.777 462.57 99.0682 462.57 93.2316C462.57 84.3804 456.092 77.5176 445.316 77.5176H430.628V124.339ZM467.395 124.339H480.544C494.847 124.339 504.917 114.269 504.917 100.928C504.917 87.6515 496.001 77.5176 480.159 77.5176H467.395V124.339ZM479.133 85.7915C490.614 85.7915 496.001 92.0771 496.001 100.928C496.001 109.523 489.652 116.065 479.518 116.065H476.311V85.7915H479.133Z" fill="black"/>
</svg>
