<svg xmlns="http://www.w3.org/2000/svg" xmlns:xlink="http://www.w3.org/1999/xlink" x="0px" y="0px" viewBox="0 0 512 512" style="enable-background:new 0 0 512 512;" xml:space="preserve">
<g>
	<g>
		<g>
			<rect x="252.007" y="78.861" width="119.789" height="39.93"></rect>
			<path d="M60.345,461.188v-96.829c0-5.504,4.478-9.982,9.982-9.982h141.75v-39.93H70.327c-5.504,0-9.982-4.478-9.982-9.982     v-97.828c0-5.504,4.478-9.982,9.982-9.982h331.416c5.504,0,9.982,4.478,9.982,9.982h39.93c0-11.227-3.728-21.599-10.009-29.947     c6.281-8.348,10.009-18.72,10.009-29.947V49.912C451.655,22.391,429.265,0,401.743,0H70.327     C42.806,0,20.415,22.391,20.415,49.912v96.829c0,11.227,3.728,21.599,10.009,29.947c-6.281,8.348-10.009,18.72-10.009,29.947     v97.828c0,11.227,3.728,21.599,10.009,29.947c-6.281,8.348-10.009,18.72-10.009,29.947v96.829     c0,27.521,22.391,49.912,49.912,49.912h181.68v-39.93H70.327C64.824,471.17,60.345,466.692,60.345,461.188z M60.345,49.912     c0-5.504,4.478-9.982,9.982-9.982h331.416c5.504,0,9.982,4.478,9.982,9.982v96.829c0,5.504-4.478,9.982-9.982,9.982H70.327     c-5.504,0-9.982-4.478-9.982-9.982V49.912z"></path>
			<circle cx="118.243" cy="98.826" r="19.965"></circle>
			<path d="M458.128,261.391c-24.063-4.326-46.962-18.501-55.692-24.396c-9.105-6.147-19.7-9.396-30.64-9.396     c-10.94,0-21.535,3.249-30.642,9.397c-8.728,5.894-31.627,20.069-55.69,24.395c-19.387,3.486-33.457,20.301-33.457,39.983v62.287     c0,93.788,107.092,142.671,111.651,144.706l8.138,3.633l8.138-3.633c4.56-2.035,111.651-50.918,111.651-144.706v-62.287     C491.585,281.693,477.515,264.877,458.128,261.391z M451.654,301.374v62.287c0,55.354-58.113,92.229-79.891,104.102     c-21.83-11.823-79.827-48.477-79.827-104.102v-62.287c0-0.339,0.244-0.62,0.593-0.683c30.415-5.468,57.52-21.521,70.968-30.602     c2.482-1.675,5.351-2.56,8.298-2.56s5.818,0.885,8.297,2.56c13.45,9.082,40.555,25.135,70.97,30.603     C451.412,300.754,451.655,301.035,451.654,301.374L451.654,301.374z"></path>
			<circle cx="118.243" cy="413.272" r="19.965"></circle>
			<circle cx="118.243" cy="255.55" r="19.965"></circle>
		</g>
	</g>
</g>
</svg>