<svg viewBox="-21 -22 682.66669 682" xmlns="http://www.w3.org/2000/svg"><path d="m640 472.65625-22.90625-17.753906c-2.949219-2.285156-16.722656-12.660156-35.984375-22.445313 3.574219-2.96875 7.011719-6.199219 10.25-9.742187 35.707031-39.007813 43.972656-101.882813 44.308594-104.542969l3.625-28.785156-27.6875.726562c3.390625-6.773437 6.199219-14.042969 8.136719-21.796875 12.882812-51.542968-10.03125-111.355468-11.007813-113.875l-10.449219-26.835937-25.058594 14.1875c-7.148437 4.046875-70.21875 41.09375-83.539062 94.371093-8.433594 33.730469 2.507812 67.105469 12.578125 88.367188-3.429687 2.808594-6.675781 5.835938-9.683594 9.121094-15.136719 16.539062-23.082031 36.730468-27.148437 55.226562-11.222656 39.730469-38.230469 68.515625-80.324219 85.574219-26.140625 10.597656-50.84375 13.546875-61.328125 14.351563-1.359375-.074219-2.726562-.117188-4.097656-.117188-1.308594 0-2.609375.039062-3.902344.101562-24.273438-1.886718-119.238281-14.90625-142.039062-102.914062l-.925782.238281c-4.1875-17.6875-11.976562-36.664062-26.171875-52.351562-2.714843-3.003907-5.628906-5.792969-8.699219-8.394531 10.175782-21.214844 21.515626-55.027344 12.972657-89.203126-13.316407-53.277343-76.390625-90.324218-83.539063-94.371093l-25.054687-14.1875-10.449219 26.835937c-.980469 2.519532-23.890625 62.332032-11.007812 113.875 1.941406 7.753906 4.75 15.023438 8.136718 21.800782l-27.949218-.742188 3.578124 28.761719c.328126 2.65625 8.496094 65.476562 43.769532 104.46875 3.269531 3.617187 6.738281 6.90625 10.347656 9.925781-19.1875 9.765625-32.898438 20.09375-35.84375 22.371094l-22.90625 17.753906 20.980469 19.988281c1.941406 1.84375 47.839843 45.066407 99.785156 53.289063-9.570313 16.546875-14.945313 30.382812-16.140625 33.59375l-10.128906 27.152344 28.363281 5.945312c1.460937.304688 21.296875 4.355469 46.96875 4.355469 20.644531 0 45.070313-2.625 66.734375-11.910157 5.71875-2.453124 11.0625-5.371093 16.050781-8.632812 12.210938 24.726562 37.679688 41.777344 67.070313 41.777344 29.511718 0 55.082031-17.199219 67.230468-42.09375 5.121094 3.382812 10.621094 6.417968 16.523438 8.949218 21.671875 9.292969 46.089844 11.910157 66.738281 11.910157 25.664063 0 45.503907-4.050781 46.964844-4.355469l28.363281-5.945312-10.128906-27.152344c-1.195312-3.210938-6.570312-17.046875-16.140625-33.59375 51.945313-8.222656 97.84375-51.445313 99.785156-53.289063zm-530.316406-105.457031c10.691406 11.816406 15.316406 29.125 17.050781 44-13.765625-3.3125-30.21875-9.703125-41.375-22.027344-10.867187-12.015625-18.523437-29.199219-23.570313-44.722656 17.710938 3.949219 37.230469 10.960937 47.894532 22.75zm419.660156.105469c2.65625-2.898438 5.871094-5.507813 9.476562-7.855469l8.480469-4.546875c.230469-.125.980469-.53125 2.152344-1.214844 9.101563-4.136719 19.335937-7.144531 29.027344-9.261719-4.871094 14.980469-12.460938 32.152344-23.886719 44.636719-11.472656 12.535156-28.441406 18.957031-42.519531 22.242188.324219-2.894532.769531-5.917969 1.355469-9 .367187-1.300782.734374-2.609376 1.078124-3.933594l-.234374-.058594c2.527343-10.9375 7.058593-22.25 15.070312-31.007812zm8.699219-119.054688c3.941406-15.773438 18.566406-31.652344 32.855469-43.78125 3.023437 16.390625 4.515624 35.648438.488281 51.761719-4.164063 16.667969-16.246094 30.445312-27.199219 40.011719-5.75-14.195313-10.117188-32.121094-6.144531-47.992188zm-468.335938-43.78125c14.292969 12.132812 28.917969 28.011719 32.855469 43.78125 3.96875 15.871094-.394531 33.800781-6.132812 47.988281-10.960938-9.578125-23.046876-23.367187-27.210938-40.007812-4.027344-16.113281-2.535156-35.375.488281-51.761719zm64.332031 259.351562c15.84375 2.386719 30.46875 12.875 41.3125 23.339844-1.167968.660156-2.320312 1.335938-3.453124 2.046875-12.34375 5.492188-27.71875 9.871094-42.851563 7.589844-16.253906-2.445313-33.308594-11.054687-47.214844-20 16.40625-8.289063 36.253907-15.375 52.207031-12.976563zm82.882813 95.4375c-15.125 6.484376-34.167969 8.152344-50.71875 7.859376 7.945313-13.054688 18.332031-26.539063 30.148437-34.414063 3.539063-1.679687 6.859376-3.390625 9.914063-5.070313 14.382813-5.253906 31.371094-3.933593 45.371094-.855468-7.65625 12.101562-19.183594 25.828125-34.714844 32.480468zm102.761719 29.113282c-13.746094 0-24.921875-11.175782-24.921875-24.921875 0-12.628907 9.449219-23.0625 21.640625-24.679688 1.117187.066407 2.03125.105469 2.742187.128907v.046874c.113281-.003906.410157-.007812.855469-.019531.445312.011719.742188.015625.855469.019531v-.046874c.605469-.019532 1.363281-.054688 2.265625-.101563 12.113281 1.683594 21.480468 12.082031 21.480468 24.652344 0 13.738281-11.179687 24.921875-24.917968 24.921875zm103.394531-29.113282c-15.542969-6.660156-27.078125-20.402343-34.738281-32.507812 13.457031-3.046875 30.449218-4.613281 45.378906.878906 3.0625 1.683594 6.390625 3.394532 9.933594 5.078125 11.835937 7.886719 22.230468 21.402344 30.179687 34.460938-16.488281.292969-35.519531-1.375-50.753906-7.910157zm87.875-62.460937c-15.128906 2.277344-30.507813-2.097656-42.84375-7.585937-1.136719-.707032-2.289063-1.390626-3.457031-2.046876 10.851562-10.476562 25.46875-20.957031 41.308594-23.34375 16.0625-2.417968 35.875 4.644532 52.304687 12.984376-13.859375 8.929687-30.917969 17.523437-47.3125 19.992187zm-214.945313-112.773437v-130.691407c-18.078124 12.476563-39.972656 19.800781-63.546874 19.800781v-49.84375c34.351562 0 62.300781-27.949218 62.300781-62.300781h49.839843v.214844h1.242188v222.820313zm-147.082031-249.148438-39.683593-30.15625c24.121093-31.742188 55.617187-58.03125 91.078124-76.019531 37.214844-18.878907 77.371094-28.449219 119.363282-28.449219 41.753906 0 83.339844 9.996094 120.261718 28.910156 35.703126 18.28125 67.304688 44.972656 91.390626 77.167969l-39.910157 29.855469c-40.921875-54.710938-103.519531-86.089844-171.742187-86.089844-67.578125 0-129.816406 30.898438-170.757813 84.78125zm0 0"/></svg>