<svg viewBox="0 0 512 512" xmlns="http://www.w3.org/2000/svg"><path d="m512 40h-372c-33.085938 0-60 26.914062-60 60v108c0 33.085938 26.914062 60 60 60h57.058594c-.039063.328125-.058594.660156-.058594 1 0 14.386719 7.601562 26.996094 19 34.042969v76.957031c0 11.027344-8.972656 20-20 20h-156v-400h-40v512h40v-72h156c33.085938 0 60-26.914062 60-60v-75.792969c12.503906-6.765625 21-19.992187 21-35.207031 0-.339844-.019531-.671875-.058594-1h76.605469l35.585937-44h122.867188v-120h-25.820312l25.820312-31.925781zm-177.546875 188h-194.453125c-11.027344 0-20-8.972656-20-20v-108c0-11.027344 8.972656-20 20-20h314.148438zm137.546875-84v40h-50.519531l32.351562-40zm-192-4c0 11.046875-8.953125 20-20 20s-20-8.953125-20-20 8.953125-20 20-20 20 8.953125 20 20zm-80 0c0 11.046875-8.953125 20-20 20s-20-8.953125-20-20 8.953125-20 20-20 20 8.953125 20 20zm0 0"/></svg>