<svg viewBox="-11 0 512 512" xmlns="http://www.w3.org/2000/svg"><path d="m336.082031 415.097656h40.007813v36.886719c0 33.09375-26.921875 60.015625-60.015625 60.015625h-256.058594c-33.09375 0-60.015625-26.921875-60.015625-60.015625v-392.09375c0-33.089844 26.921875-59.890625 60.015625-59.890625h256.058594c33.09375 0 60.015625 26.800781 60.015625 59.890625v37.132813h-40.007813v-37.132813c0-11.027344-8.976562-20.003906-20.007812-20.003906h-256.058594c-11.03125 0-20.007813 8.976562-20.007813 20.003906v392.09375c0 11.03125 8.976563 20.128906 20.007813 20.128906h256.058594c11.03125 0 20.007812-9.097656 20.007812-20.128906zm-108.027343-335.078125h-80.019532v40.007813h80.019532zm-60.015626 332.078125c0 11.050782 8.957032 20.003906 20.003907 20.003906 11.050781 0 20.007812-8.953124 20.007812-20.003906 0-11.046875-8.957031-20.003906-20.007812-20.003906-11.046875 0-20.003907 8.957031-20.003907 20.003906zm169.042969-113.027344h40.007813v-40.007812h-40.007813zm125.324219-11.171874-7.296875-5.832032v43.832032c0 27.574218-22.429687 49.191406-50.003906 49.191406h-97.023438c-27.578125 0-50.011719-22.4375-50.011719-50.011719v-43.832031l-7.292968 6.652344-26.964844-29.558594 132.78125-121.132813 132.777344 121.132813zm-47.300781-43.148438-58.511719-53.382812-57.523438 53.378906v80.332031c0 5.515625 3.496094 10 9.011719 10h97.023438c5.511719 0 10-4.484375 10-10zm0 0"/></svg>