<svg viewBox="0 0 512.001 512" xmlns="http://www.w3.org/2000/svg"><path d="m475.949219 227.917969c-28.261719-5.089844-55.054688-21.703125-65.261719-28.609375-9.988281-6.757813-21.613281-10.328125-33.621094-10.328125-12.003906 0-23.628906 3.570312-33.617187 10.328125-10.207031 6.90625-37.003907 23.519531-65.265625 28.609375-20.886719 3.765625-36.046875 21.902343-36.046875 43.132812v71.863281c0 106.242188 121.59375 161.847657 126.769531 164.164063l8.160156 3.648437 8.164063-3.648437c5.175781-2.316406 126.769531-57.921875 126.769531-164.164063v-71.863281c0-21.230469-15.160156-39.367187-36.050781-43.132812zm-3.929688 114.996093c0 66.71875-70.625 110.453126-94.980469 123.546876-24.410156-13.046876-94.925781-56.546876-94.925781-123.546876v-71.863281c0-1.863281 1.328125-3.453125 3.15625-3.785156 34.484375-6.210937 65.289063-24.496094 80.582031-34.839844 3.347657-2.269531 7.226563-3.464843 11.214844-3.464843 3.988282 0 7.867188 1.199218 11.21875 3.464843 15.292969 10.34375 46.09375 28.628907 80.578125 34.839844 1.828125.332031 3.15625 1.921875 3.15625 3.785156zm-191.484375 153.902344c6.386719 5.480469 12.757813 10.480469 18.921875 15.003906h-189.257812c-33.066407 0-59.96875-26.90625-59.96875-59.972656v-209.894531l-23.285157 21.242187-26.945312-29.535156 256.125-233.660156 163.328125 149h-59.320313l-104.007812-94.882812-165.914062 151.367187v246.363281c0 11.023438 8.964843 19.992188 19.988281 19.992188h144.710937c7.730469 8.605468 16.269532 16.945312 25.625 24.976562zm0 0"/></svg>