<svg fill="none" height="30" viewBox="0 0 98 30" width="98" xmlns="http://www.w3.org/2000/svg" xmlns:xlink="http://www.w3.org/1999/xlink"><clipPath id="a"><path d="m0 0h97.9791v30h-97.9791z"/></clipPath><g clip-path="url(#a)" fill="#fff"><path d="m.678345 0c0 .0254381 9.607155 0 9.607155 0s-4.54498 9.04749-4.55346 9.09836c-2.93386-1.59412-5.053695-5.84228-5.053695-9.09836z"/><path d="m15.1442 0-15.1442 30c3.36631 0 6.75806-.0085 8.24194-.0085l15.16956-29.9915z"/><path d="m19.0531 20.8846c2.9339 1.5942 5.0537 5.8423 5.0537 9.0984 0-.0254-9.6071 0-9.6071 0s4.545-9.0475 4.5534-9.0984z"/><path d="m29.4064 8.67429c0-6.57151 5.9441-9.174673 7.4534-8.5895962v3.6630862 9.88692 2.4845 13.8722h-7.4534z"/><path d="m49.4771.0253906h-7.4449v13.8553094 2.4844 9.8785 3.6631c1.5094.5766 7.4449-2.0181 7.4449-8.5896v-4.952h3.7564c2.0096 0 3.0356-1.2804 3.29-2.442l.0339-.0424h-7.0803z"/><path d="m51.6055 0s4.5873 9.13228 4.5958 9.19163c2.9677-1.61108 5.1045-5.90164 5.1045-9.19163 0 .0254381-9.7003 0-9.7003 0z"/><path d="m78.6037 30h7.3516v-25.95535-3.9513883h-7.3516z"/><path d="m66.58.0509033c0 3.2475967 2.1114 7.4872767 5.0367 9.0729267.0085-.05088 4.545-9.0729267 4.545-9.0729267s-9.5817.0169588-9.5817 0z"/><path d="m88.3974.0509033s4.528 9.0220467 4.5449 9.0729267c2.9254-1.59412 5.0368-5.82533 5.0368-9.0729267 0 .0169588-9.5817 0-9.5817 0z"/></g></svg>