<?xml version="1.0" encoding="utf-8"?>
<!-- Generator: Adobe Illustrator 22.1.0, SVG Export Plug-In . SVG Version: 6.00 Build 0)  -->
<svg version="1.1" id="Layer_1" xmlns="http://www.w3.org/2000/svg" xmlns:xlink="http://www.w3.org/1999/xlink" x="0px" y="0px"
	 viewBox="0 0 152 54" style="enable-background:new 0 0 152 54;" xml:space="preserve">
<style type="text/css">
	.st0{fill:#2DB7FF;}
	.st1{fill:#263788;}
</style>
<g transform="translate(0.000000,512.000000) scale(0.100000,-0.100000)">
	<path class="st0" d="M245.6,5110c-50.3-4.9-96.7-23.4-137.4-54.8c-19.9-15.3-45.6-44-60.5-67.4c-6.4-10.1-18.9-35.7-23.4-47.9
		c-5-13.6-10.4-34.6-13-50.8c-3.2-19.9-3.2-57.5,0-77.4c4.6-28.1,11.8-50.7,24.1-75.8c13.4-27.4,27.4-46.8,49.8-69.3
		c22.5-22.4,41.9-36.3,69.3-49.8c25.1-12.3,47.7-19.5,75.8-24.1c19.9-3.2,57.5-3.2,77.4,0c28.1,4.6,50.7,11.8,75.8,24.1
		c27.4,13.4,46.8,27.4,69.3,49.8c22.4,22.5,36.3,41.9,49.8,69.3c9,18.2,13.4,30.1,18.3,48.5c6.4,24.4,7.9,37.8,7.9,66.1
		s-1.5,41.6-7.9,66.1c-4.9,18.3-9.4,30.2-18.3,48.5c-13.4,27.4-27.4,46.8-49.8,69.3c-22.5,22.4-41.9,36.3-69.3,49.8
		c-25,12.3-48.3,19.6-75.3,23.9C293.2,5110.3,259.8,5111.4,245.6,5110z M301,5086.1c52.2-7.3,98.9-30.5,136-67.7
		c37.9-37.8,61.1-85.2,68.3-139.5c1.6-12.4,1.6-44.6,0-57c-7.2-54.3-30.4-101.7-68.3-139.5c-37.8-37.9-85.2-61.1-139.5-68.3
		c-12.4-1.6-44.6-1.6-57,0c-54.3,7.2-101.7,30.4-139.5,68.3c-37.9,37.8-61.1,85.2-68.3,139.5c-1.6,12.4-1.6,44.6,0,57
		c7.2,54.3,30.4,101.7,68.3,139.5c41.4,41.4,91.8,64.3,153.7,69.6C263,5088.7,290.4,5087.6,301,5086.1z"/>
	<path class="st0" d="M261.7,5062.3l-3.4-3l-0.3-14.8c-0.3-12,0-15.4,1.2-17.9c1.7-3.4,6.3-6.2,9.8-6.2s8,2.9,9.8,6.2
		c1.2,2.5,1.5,5.9,1.2,17.9l-0.3,14.8l-3.4,3c-2.4,2.2-4.3,3-7.3,3S264.1,5064.5,261.7,5062.3z"/>
	<path class="st0" d="M205.3,5040.7c-8.9-8.8-13.9-14.7-14.7-16.8c-2.4-7.2,3.2-14.7,10.9-14.7c4.1,0,9.9,4.6,22.4,17.6
		c12.2,12.6,13.7,17.7,7.2,24.1c-2.4,2.4-3.9,3.1-7.6,3.1C219,5054,218.7,5053.8,205.3,5040.7z"/>
	<path class="st0" d="M306.9,5051c-6.6-6.6-5-11.5,8.2-25.2c12.5-12.8,17.2-16.5,21.5-16.5c7.6,0,13.2,7.5,10.8,14.7
		c-0.7,2.1-5.8,8-14.7,16.8c-13.4,13.1-13.7,13.3-18.2,13.3C310.7,5054,309.3,5053.4,306.9,5051z"/>
	<path class="st0" d="M150.9,5007.5c-3-1.5-4.7-4-10.4-15.1c-5.1-9.9-6.8-14.3-6.9-17.4c-0.1-10.1,11-14.7,18.7-7.7
		c1,0.9,4.6,7.2,8,13.9c7.3,14.7,7.9,19.2,3.2,23.9C159.6,5008.9,155.4,5009.7,150.9,5007.5z"/>
	<path class="st0" d="M379.3,5008.5c-1.2-0.2-3.5-1.7-5-3.4c-4.7-4.9-4.1-9.4,3.3-23.9c3.5-6.7,7-13,8-13.9
		c7.6-6.8,18.7-2.3,18.7,7.4c0,4.9-12,29.6-15.5,31.9C386.2,5008.3,382.3,5009.1,379.3,5008.5z"/>
	<path class="st0" d="M267,4997.3c-8.1-2.5-9.2-5-9.2-22.2c0-15.7,0.9-18.6,6.5-21.3c4.3-2,5.1-2,9.4,0c5.6,2.6,6.5,5.6,6.5,21.3
		c0,15-0.9,18.4-5.3,20.6C271.6,4997.3,268.8,4997.9,267,4997.3z"/>
	<path class="st0" d="M205.6,4983.8c-2.6-2.1-14.1-23.6-15.4-28.9c-2.4-10,10.4-17.9,17.9-11.1c3.7,3.3,15.1,27.3,15.1,31.8
		c0,6-4.4,10.3-10.5,10.3C209.7,4985.8,207.3,4985.1,205.6,4983.8z"/>
	<path class="st0" d="M318,4982.7c-4.9-4.9-4.4-8.7,3.4-24.1c3.6-7.1,7.4-13.7,8.6-14.8c7.5-6.8,20.4,1.1,17.9,11.1
		c-1.2,5.3-12.7,26.8-15.4,28.9C328.2,4987,321.8,4986.5,318,4982.7z"/>
	<path class="st0" d="M161.4,4939c-4.5-2.6-16.6-26.5-16.6-32.5c0-8.7,10.8-13.5,17.7-8.1c3.1,2.4,14.4,24.1,15.4,29.6
		c0.9,4.9-1.6,9.7-6.1,11.6C167.1,4941.5,165.3,4941.4,161.4,4939z"/>
	<path class="st0" d="M366,4939.5c-3.5-1.5-6.4-6-6.4-10c0-3.8,12.6-28.6,15.8-31c5.3-4.2,13.6-2.4,16.7,3.6
		c2.2,4.3,1.1,8.4-5.5,21.7C378.1,4940.5,374.6,4943.3,366,4939.5z"/>
	<path class="st0" d="M258.8,4906.7c-22.9-1-45.2-4.9-54.7-9.6c-11.1-5.4-27.9-24.3-37.7-42.3c-3.9-7.1-4-7.2-6.4-5.8
		c-5.2,2.9-15.8,5.8-20.8,5.8c-12.7,0-19-8-16.9-21.2c1.4-8.4,5.4-16,12.2-23l5.8-6l-1.9-6.8c-3.6-13-5-23.9-5-39.1
		c0-24.9,3.3-45.2,9.3-56.9c1.6-3.3,2-6.1,2-15.5c0-12.8,1.4-17.4,6.7-22.4c5.5-5.1,9.1-5.9,26.9-5.9s21.4,0.8,26.9,5.9
		c4.4,4.2,6.7,10,6.7,17.3c0,7.2-0.2,7.1,9.7,4.9c28.7-6.8,66-6.8,94.7,0c9.9,2.2,9.7,2.3,9.7-4.9c0-7.3,2.3-13.1,6.7-17.3
		c5.5-5.1,9.1-5.9,26.9-5.9s21.4,0.8,26.9,5.9c5.3,5,6.7,9.6,6.7,22.4c0,9.4,0.4,12.2,2,15.5c10.5,20.6,12.5,66.4,4.3,96l-1.9,6.8
		l5.8,6c6.8,7,10.8,14.6,12.2,23c2.1,13.1-4.2,21.2-16.9,21.2c-5,0-15.6-3-20.8-5.8c-2.4-1.4-2.5-1.3-6.4,5.8
		c-9.8,18.1-26.5,37-37.7,42.3C321.2,4903.4,285.4,4907.9,258.8,4906.7z M297.5,4882.5c22-2.7,25.7-4,32.6-10.4
		c10.6-9.8,23.3-28.8,27.9-41.7l1.4-4.1l-15.9-2.1c-46.4-6.3-51.2-6.7-74.5-6.7s-28.1,0.4-74.5,6.7l-15.9,2.1l1.4,4.1
		c4.6,12.9,17.3,32,27.9,41.7c5.4,5,6.9,5.8,13.4,7.3C242,4884,274.6,4885.2,297.5,4882.5z M151.4,4827.2c-0.3-0.3-1.1,0-1.8,0.7
		c-0.9,1-0.8,1.1,0.6,0.5C151.2,4828.1,151.7,4827.5,151.4,4827.2z M388.6,4828c-0.3-0.5-1.2-1-1.8-1c-0.7,0-0.6,0.4,0.3,1
		C389,4829.3,389.4,4829.3,388.6,4828z M376.4,4795.8c0.5-1.9,0.2-2.3-1.5-2.3c-1.2,0-6.8-0.9-12.4-2c-13.6-2.9-23.7-7.6-29.7-14.4
		c-5-5.5-6.7-10-6.7-17.1c0-3.7,0.6-5,3.5-7.8c6.4-6.4,15.6-3.7,18.2,5.4c1.1,4,2.1,5.3,5.4,7.1c4.3,2.4,14,5,23.1,6l5.8,0.6v-13.8
		c0-13.7-1.8-29.5-4.4-38.3l-1.3-4.6l-20.4-0.1c-19.2-0.1-21.1-0.3-32.6-3.3c-39.6-10.2-69.1-10.2-108.7,0
		c-11.5,3-13.3,3.2-32.6,3.3l-20.4,0.1l-1.3,4.6c-2.5,8.8-4.4,24.5-4.4,38.3v13.8l6.4-0.7c8.2-0.9,17.4-3.3,22.2-5.7
		c3.1-1.5,4.1-2.9,5.5-7.1c3.2-9.4,12-12,18.4-5.6c2.9,2.9,3.5,4.2,3.5,7.9c0,7-1.7,11.5-6.7,17c-6,6.7-16.1,11.5-29.7,14.4
		c-5.6,1.1-11.2,2-12.4,2c-2.3,0-2.2,0.9,0.6,7.9c1.6,4,1,4,24.6,0.7c38.7-5.3,64.6-7.8,80.6-7.8c16.3,0,42.3,2.5,83,8.2l20.4,2.7
		l1.6-3.6C374.9,4799.6,376,4797,376.4,4795.8z M189.6,4686v-5.6h-11.2h-11.2v5.6v5.6h11.2h11.2V4686z M370.8,4686v-5.6h-11.2h-11.2
		v5.6v5.6h11.2h11.2V4686z"/>
	<path class="st0" d="M241.9,4770c-3.7-1.5-6.5-6-6.5-10.4c0-3.3,0.7-4.8,3.5-7.5l3.5-3.5H269h26.7l3.5,3.5
		c4.7,4.7,4.9,10.3,0.5,15.1l-3,3.4l-26.4,0.2C255.9,4770.8,243,4770.5,241.9,4770z"/>
</g>
<g>
	<path class="st1" d="M61.8,24.3l3.7-15.1h4.9l3.7,15.1h-2.5L70.9,21h-5.8l-0.8,3.2H61.8z M67.4,11.2l-1.9,7.6h4.8l-1.8-7.6H67.4z"
		/>
	<path class="st1" d="M82.7,13.3H85v11h-2.4v-0.7c-1.1,0.6-2.1,0.9-3,0.9c-1.5,0-2.5-0.4-3-1.2S75.9,21,75.9,19v-5.7h2.4V19
		c0,1.3,0.1,2.2,0.3,2.7c0.2,0.5,0.7,0.7,1.5,0.7c0.8,0,1.5-0.1,2.2-0.4l0.3-0.1V13.3z"/>
	<path class="st1" d="M93.9,15.3h-3v4.8c0,0.9,0.1,1.5,0.2,1.8c0.1,0.3,0.5,0.4,1,0.4l1.8-0.1l0.1,1.9c-1,0.2-1.7,0.3-2.2,0.3
		c-1.2,0-2.1-0.3-2.6-0.9c-0.5-0.6-0.7-1.6-0.7-3.2v-5.1H87v-2h1.4v-3.2h2.4v3.2h3V15.3z"/>
	<path class="st1" d="M96.4,14.4c0.8-1,2-1.4,3.8-1.4s3,0.5,3.8,1.4c0.8,1,1.1,2.4,1.1,4.3c0,1.9-0.4,3.3-1.1,4.3
		c-0.7,1-2,1.5-3.8,1.5S97.1,24,96.4,23c-0.7-1-1.1-2.4-1.1-4.3C95.3,16.8,95.7,15.4,96.4,14.4z M98.2,21.6c0.3,0.6,1,0.9,2,0.9
		s1.6-0.3,2-0.9c0.3-0.6,0.5-1.5,0.5-2.9c0-1.3-0.2-2.3-0.5-2.8c-0.4-0.6-1-0.8-1.9-0.8s-1.6,0.3-1.9,0.8s-0.5,1.5-0.5,2.8
		C97.7,20,97.9,21,98.2,21.6z"/>
	<path class="st1" d="M117.1,25.7c0,2.4-1.7,3.6-5.2,3.6c-1.7,0-2.9-0.2-3.7-0.7s-1.2-1.3-1.2-2.5c0-0.5,0.1-1,0.4-1.4
		c0.3-0.4,0.7-0.8,1.3-1.3c-0.5-0.3-0.7-0.9-0.7-1.6c0-0.3,0.2-0.8,0.6-1.4l0.2-0.3c-1.1-0.6-1.6-1.7-1.6-3.3c0-1.3,0.4-2.3,1.2-2.9
		c0.8-0.6,1.9-0.9,3.2-0.9c0.6,0,1.3,0.1,1.9,0.2l0.3,0.1l3.4-0.1v1.9l-1.8-0.1c0.4,0.5,0.6,1.1,0.6,1.8c0,1.4-0.4,2.4-1.1,3
		c-0.7,0.6-1.9,0.8-3.4,0.8c-0.4,0-0.7,0-1-0.1c-0.2,0.5-0.3,0.9-0.3,1.2c0,0.3,0.1,0.5,0.4,0.6c0.3,0.1,0.9,0.2,2,0.2
		c1.7,0,2.9,0.3,3.6,0.7C116.8,23.6,117.1,24.5,117.1,25.7z M109.3,26c0,0.5,0.2,0.9,0.6,1.1c0.4,0.2,1.1,0.3,2.1,0.3
		c1.8,0,2.7-0.5,2.7-1.5c0-0.6-0.2-0.9-0.5-1.1c-0.3-0.2-0.9-0.2-1.9-0.3l-2.2-0.1c-0.3,0.3-0.5,0.5-0.7,0.7
		C109.4,25.4,109.3,25.6,109.3,26z M110,18.3c0.3,0.3,0.8,0.5,1.6,0.5s1.2-0.2,1.6-0.5c0.3-0.3,0.5-0.8,0.5-1.5
		c0-0.7-0.2-1.2-0.5-1.5c-0.3-0.3-0.8-0.5-1.6-0.5c-1.3,0-2,0.7-2,2C109.5,17.5,109.6,18,110,18.3z"/>
	<path class="st1" d="M119.2,24.3V8.7h2.4v15.6H119.2z"/>
	<path class="st1" d="M125.2,14.4c0.8-1,2-1.4,3.8-1.4s3,0.5,3.8,1.4c0.8,1,1.1,2.4,1.1,4.3c0,1.9-0.4,3.3-1.1,4.3
		c-0.7,1-2,1.5-3.8,1.5s-3.1-0.5-3.8-1.5c-0.7-1-1.1-2.4-1.1-4.3C124.1,16.8,124.5,15.4,125.2,14.4z M127,21.6c0.3,0.6,1,0.9,2,0.9
		s1.6-0.3,2-0.9c0.3-0.6,0.5-1.5,0.5-2.9c0-1.3-0.2-2.3-0.5-2.8c-0.4-0.6-1-0.8-1.9-0.8s-1.6,0.3-1.9,0.8s-0.5,1.5-0.5,2.8
		C126.5,20,126.7,21,127,21.6z"/>
	<path class="st1" d="M135.4,13.3h2.4l1.7,9h0.4l2.1-8.7h2.5l2.1,8.7h0.4l1.7-9h2.4l-2.3,11H145l-1.7-7.5l-1.7,7.5h-3.8L135.4,13.3z
		"/>
	<path class="st1" d="M68.2,46.5c-2.2,0-3.7-0.6-4.5-1.8c-0.8-1.2-1.2-3.2-1.2-6s0.4-4.8,1.2-6s2.3-1.8,4.5-1.8
		c1.3,0,2.7,0.2,4.3,0.6l-0.1,2c-1.3-0.2-2.6-0.4-4-0.4s-2.2,0.4-2.7,1.2c-0.5,0.8-0.7,2.3-0.7,4.4c0,2.2,0.2,3.6,0.7,4.4
		c0.5,0.8,1.3,1.2,2.7,1.2s2.7-0.1,4-0.3l0.1,2C71,46.3,69.5,46.5,68.2,46.5z"/>
	<path class="st1" d="M82.9,38.6v5c0,0.3,0.1,0.6,0.3,0.7c0.2,0.2,0.4,0.3,0.7,0.3l-0.1,1.8c-1.3,0-2.2-0.3-2.9-0.8
		c-1.2,0.5-2.4,0.8-3.5,0.8c-2.2,0-3.3-1.2-3.3-3.5c0-1.1,0.3-1.9,0.9-2.4c0.6-0.5,1.5-0.8,2.7-0.9l2.8-0.2v-0.8
		c0-0.6-0.1-1-0.4-1.2s-0.6-0.4-1.1-0.4c-0.9,0-2.1,0.1-3.5,0.2l-0.7,0l-0.1-1.7c1.6-0.4,3.1-0.6,4.4-0.6s2.3,0.3,2.9,0.9
		C82.6,36.5,82.9,37.4,82.9,38.6z M78,41.4c-1,0.1-1.5,0.6-1.5,1.6s0.4,1.5,1.3,1.5c0.7,0,1.5-0.1,2.3-0.4l0.4-0.1v-2.9L78,41.4z"/>
	<path class="st1" d="M85.9,46.3v-11h2.4v1.3c1.2-0.8,2.5-1.3,3.7-1.6v2.4c-1.3,0.3-2.3,0.6-3.2,1l-0.5,0.2v7.7H85.9z"/>
	<path class="st1" d="M93,35.3h2.4l1.7,9h0.4l2.1-8.7h2.5l2.1,8.7h0.4l1.7-9h2.4l-2.3,11h-3.8l-1.7-7.5l-1.7,7.5h-3.8L93,35.3z"/>
	<path class="st1" d="M118.9,38.6v5c0,0.3,0.1,0.6,0.3,0.7c0.2,0.2,0.4,0.3,0.7,0.3l-0.1,1.8c-1.3,0-2.2-0.3-2.9-0.8
		c-1.2,0.5-2.4,0.8-3.5,0.8c-2.2,0-3.3-1.2-3.3-3.5c0-1.1,0.3-1.9,0.9-2.4c0.6-0.5,1.5-0.8,2.7-0.9l2.8-0.2v-0.8
		c0-0.6-0.1-1-0.4-1.2s-0.6-0.4-1.1-0.4c-0.9,0-2.1,0.1-3.5,0.2l-0.7,0l-0.1-1.7c1.6-0.4,3.1-0.6,4.4-0.6s2.3,0.3,2.9,0.9
		C118.6,36.5,118.9,37.4,118.9,38.6z M114,41.4c-1,0.1-1.5,0.6-1.5,1.6s0.4,1.5,1.3,1.5c0.7,0,1.5-0.1,2.3-0.4l0.4-0.1v-2.9
		L114,41.4z"/>
	<path class="st1" d="M129.6,37.5c-1.7-0.2-3-0.4-3.8-0.4s-1.3,0.1-1.6,0.3s-0.5,0.5-0.5,0.9c0,0.4,0.2,0.7,0.5,0.8
		c0.3,0.2,1.1,0.3,2.3,0.6s2.1,0.5,2.6,1c0.5,0.5,0.8,1.3,0.8,2.4c0,1.2-0.4,2-1.1,2.6c-0.7,0.5-1.8,0.8-3.2,0.8
		c-0.9,0-2-0.1-3.4-0.4l-0.7-0.1l0.1-2c1.8,0.2,3,0.4,3.8,0.4s1.3-0.1,1.7-0.3c0.3-0.2,0.5-0.5,0.5-0.9s-0.2-0.7-0.5-0.9
		c-0.3-0.2-1.1-0.4-2.3-0.5s-2.1-0.5-2.6-0.9c-0.6-0.4-0.8-1.2-0.8-2.3c0-1.1,0.4-2,1.2-2.5c0.8-0.6,1.8-0.8,3-0.8
		c0.9,0,2.1,0.1,3.5,0.4l0.7,0.1L129.6,37.5z"/>
	<path class="st1" d="M134.7,46.3h-2.4V30.7h2.4v5.1c1.1-0.5,2.1-0.8,3-0.8c1.5,0,2.5,0.4,3,1.2c0.5,0.8,0.8,2.2,0.8,4.1v5.9h-2.4
		v-5.8c0-1.2-0.1-2-0.4-2.5c-0.3-0.5-0.8-0.7-1.6-0.7c-0.7,0-1.4,0.1-2.1,0.4l-0.4,0.1V46.3z"/>
</g>
</svg>
