<?xml version="1.0" encoding="utf-8"?>
<!-- Generator: Adobe Illustrator 22.1.0, SVG Export Plug-In . SVG Version: 6.00 Build 0)  -->
<svg version="1.1" id="Layer_1" xmlns="http://www.w3.org/2000/svg" xmlns:xlink="http://www.w3.org/1999/xlink" x="0px" y="0px"
	 viewBox="0 0 54 54" style="enable-background:new 0 0 54 54;" xml:space="preserve">
<style type="text/css">
	.st0{fill:#2DB7FF;}
</style>
<g>
	<g>
		<path class="st0" d="M17.6,15.3c0,1.5-1.2,2.6-2.6,2.6c-1.5,0-2.6-1.2-2.6-2.6S15,9.1,15,9.1S17.6,13.9,17.6,15.3z"/>
	</g>
	<path class="st0" d="M26.6,0.6c-3.5,0-6.9,0.7-10.1,2c-0.4,0.2-0.7,0.5-0.9,0.9c-0.2,0.4-0.1,0.9,0.1,1.3
		c4.1,7.9,4.4,10.3,4.4,10.9c0,2.8-2.3,5-5,5s-5-2.3-5-5c0-0.5,0.3-2.3,2.6-7.3c0.3-0.7,0.1-1.5-0.5-2c-0.6-0.5-1.5-0.5-2,0
		c-6,5-9.4,12.3-9.4,20.1c0,14.3,11.7,26,26,26c14.3,0,26-11.7,26-26S40.9,0.6,26.6,0.6z M6.7,15.6c0,0.1,0,0.1,0,0.2
		c0,4.6,3.7,8.3,8.3,8.3s8.3-3.7,8.3-8.3c0-0.7,0-2.8-3.9-10.7c2.3-0.8,4.7-1.2,7.2-1.2c9.4,0,17.5,5.8,21,14H32.3
		c-0.3,0-0.7,0.1-0.9,0.3l-10.6,7.6h-7.3c-0.6,0-1.2,0.3-1.4,0.9l-4.2,7.9c-0.1,0.2-0.2,0.5-0.2,0.8v4c-2.4-3.6-3.8-7.9-3.8-12.6
		C3.9,22.7,4.9,19,6.7,15.6z M31.4,46.3c-2.3,0-4.1-1.8-4.1-4.1c0-2.3,1.8-4.1,4.1-4.1c2.3,0,4.1,1.8,4.1,4.1
		C35.5,44.4,33.6,46.3,31.4,46.3z M37.1,46.8c1-1.3,1.6-2.9,1.6-4.6c0-4.1-3.3-7.4-7.4-7.4c-4.1,0-7.4,3.3-7.4,7.4
		c0,3.3,2.2,6.1,5.2,7c-0.9,0.1-1.8,0.2-2.7,0.2C20.5,49.4,15,47,10.9,43H22v-3.3H11v-4.2l3.5-6.6h6.8c0.3,0,0.7-0.1,0.9-0.3
		l10.6-7.6h15.8c0.4,1.8,0.7,3.6,0.7,5.5c0,0.1,0,0.1,0,0.2H28.8v3.3h20.3C48,37.4,43.4,43.5,37.1,46.8z"/>
</g>
</svg>
