<?xml version="1.0" encoding="utf-8"?>
<!-- Generator: Adobe Illustrator 22.1.0, SVG Export Plug-In . SVG Version: 6.00 Build 0)  -->
<svg version="1.1" id="Layer_1" xmlns="http://www.w3.org/2000/svg" xmlns:xlink="http://www.w3.org/1999/xlink" x="0px" y="0px"
	 viewBox="0 0 148 54" style="enable-background:new 0 0 148 54;" xml:space="preserve">
<style type="text/css">
	.st0{fill:#2DB7FF;}
	.st1{fill:#FFFFFF;}
</style>
<g>
	<g>
		<path class="st0" d="M17.6,16.3c0,1.5-1.2,2.6-2.6,2.6c-1.5,0-2.6-1.2-2.6-2.6s2.6-6.2,2.6-6.2S17.6,14.9,17.6,16.3z"/>
	</g>
	<path class="st0" d="M26.6,1.6c-3.5,0-6.9,0.7-10.1,2c-0.4,0.2-0.7,0.5-0.9,0.9c-0.2,0.4-0.1,0.9,0.1,1.3
		c4.1,7.9,4.4,10.3,4.4,10.9c0,2.8-2.3,5-5,5s-5-2.3-5-5c0-0.5,0.3-2.3,2.6-7.3c0.3-0.7,0.1-1.5-0.5-2c-0.6-0.5-1.5-0.5-2,0
		c-6,5-9.4,12.3-9.4,20.1c0,14.3,11.7,26,26,26c14.3,0,26-11.7,26-26S40.9,1.6,26.6,1.6z M6.7,16.6c0,0.1,0,0.1,0,0.2
		c0,4.6,3.7,8.3,8.3,8.3s8.3-3.7,8.3-8.3c0-0.7,0-2.8-3.9-10.7c2.3-0.8,4.7-1.2,7.2-1.2c9.4,0,17.5,5.8,21,14H32.3
		c-0.3,0-0.7,0.1-0.9,0.3l-10.6,7.6h-7.3c-0.6,0-1.2,0.3-1.4,0.9l-4.2,7.9c-0.1,0.2-0.2,0.5-0.2,0.8v4c-2.4-3.6-3.8-7.9-3.8-12.6
		C3.9,23.7,4.9,20,6.7,16.6z M31.4,47.3c-2.3,0-4.1-1.8-4.1-4.1c0-2.3,1.8-4.1,4.1-4.1c2.3,0,4.1,1.8,4.1,4.1
		C35.5,45.4,33.6,47.3,31.4,47.3z M37.1,47.8c1-1.3,1.6-2.9,1.6-4.6c0-4.1-3.3-7.4-7.4-7.4c-4.1,0-7.4,3.3-7.4,7.4
		c0,3.3,2.2,6.1,5.2,7c-0.9,0.1-1.8,0.2-2.7,0.2C20.5,50.4,15,48,10.9,44H22v-3.3H11v-4.2l3.5-6.6h6.8c0.3,0,0.7-0.1,0.9-0.3
		l10.6-7.6h15.8c0.4,1.8,0.7,3.6,0.7,5.5c0,0.1,0,0.1,0,0.2H28.8v3.3h20.3C48,38.4,43.4,44.5,37.1,47.8z"/>
</g>
<g>
	<path class="st1" d="M68.4,23.8V8.7h4.2L76,20.5l3.4-11.8h4.3v15.1h-2.5V11.4h-0.3l-3.6,11.7h-2.6l-3.6-11.7h-0.3v12.4H68.4z"/>
	<path class="st1" d="M86.9,10.9V8.4h2.4v2.5H86.9z M86.9,23.8v-11h2.4v11H86.9z"/>
	<path class="st1" d="M99.8,15c-1.7-0.2-3-0.4-3.8-0.4s-1.3,0.1-1.6,0.3c-0.3,0.2-0.5,0.5-0.5,0.9s0.2,0.7,0.5,0.8
		c0.3,0.2,1.1,0.3,2.3,0.6c1.2,0.2,2.1,0.5,2.6,1c0.5,0.5,0.8,1.3,0.8,2.4c0,1.2-0.4,2-1.1,2.6c-0.7,0.5-1.8,0.8-3.2,0.8
		c-0.9,0-2-0.1-3.4-0.4l-0.7-0.1l0.1-2c1.8,0.2,3,0.4,3.8,0.4s1.3-0.1,1.7-0.3c0.3-0.2,0.5-0.5,0.5-0.9s-0.2-0.7-0.5-0.9
		c-0.3-0.2-1.1-0.4-2.3-0.5c-1.2-0.2-2.1-0.5-2.6-0.9s-0.8-1.2-0.8-2.3s0.4-2,1.2-2.5c0.8-0.6,1.8-0.8,3-0.8c0.9,0,2.1,0.1,3.5,0.4
		l0.7,0.1L99.8,15z"/>
	<path class="st1" d="M108.4,14.8h-3v4.8c0,0.9,0.1,1.5,0.2,1.8c0.1,0.3,0.5,0.4,1,0.4l1.8-0.1l0.1,1.9c-1,0.2-1.7,0.3-2.2,0.3
		c-1.2,0-2.1-0.3-2.6-0.9c-0.5-0.6-0.7-1.6-0.7-3.2v-5.1h-1.4v-2h1.4V9.6h2.4v3.2h3V14.8z"/>
	<path class="st1" d="M118.2,21.8l0.6-0.1l0,1.8c-1.7,0.3-3.2,0.5-4.4,0.5c-1.6,0-2.8-0.4-3.5-1.3c-0.7-0.9-1.1-2.3-1.1-4.3
		c0-3.9,1.6-5.9,4.8-5.9c3.1,0,4.6,1.7,4.6,5l-0.2,1.7h-6.8c0,0.9,0.2,1.6,0.6,2c0.4,0.4,1.1,0.6,2.1,0.6
		C116,21.9,117.1,21.9,118.2,21.8z M116.9,17.4c0-1.1-0.2-1.8-0.5-2.3c-0.3-0.4-0.9-0.6-1.7-0.6c-0.8,0-1.4,0.2-1.8,0.7
		c-0.4,0.5-0.6,1.2-0.6,2.2H116.9z"/>
	<path class="st1" d="M121.5,23.8v-11h2.4v1.3c1.2-0.8,2.5-1.3,3.7-1.6v2.4c-1.3,0.3-2.3,0.6-3.2,1l-0.5,0.2v7.7H121.5z"/>
	<path class="st1" d="M73.5,46c-2.2,0-3.7-0.6-4.5-1.8c-0.8-1.2-1.2-3.2-1.2-6s0.4-4.8,1.2-6s2.3-1.8,4.5-1.8c1.3,0,2.7,0.2,4.3,0.6
		l-0.1,2c-1.3-0.2-2.6-0.4-4-0.4c-1.3,0-2.2,0.4-2.7,1.2c-0.5,0.8-0.7,2.3-0.7,4.4c0,2.2,0.2,3.6,0.7,4.4c0.5,0.8,1.3,1.2,2.7,1.2
		c1.3,0,2.7-0.1,4-0.3l0.1,2C76.3,45.8,74.8,46,73.5,46z"/>
	<path class="st1" d="M88.3,38.1v5c0,0.3,0.1,0.6,0.3,0.7c0.2,0.2,0.4,0.3,0.7,0.3L89.2,46c-1.3,0-2.2-0.3-2.9-0.8
		c-1.2,0.5-2.4,0.8-3.5,0.8c-2.2,0-3.3-1.2-3.3-3.5c0-1.1,0.3-1.9,0.9-2.4c0.6-0.5,1.5-0.8,2.7-0.9l2.8-0.2v-0.8
		c0-0.6-0.1-1-0.4-1.2s-0.6-0.4-1.1-0.4c-0.9,0-2.1,0.1-3.5,0.2l-0.7,0l-0.1-1.7c1.6-0.4,3.1-0.6,4.4-0.6s2.3,0.3,2.9,0.9
		C88,36,88.3,36.9,88.3,38.1z M83.3,40.9c-1,0.1-1.5,0.6-1.5,1.6c0,1,0.4,1.5,1.3,1.5c0.7,0,1.5-0.1,2.3-0.4l0.4-0.1v-2.9L83.3,40.9
		z"/>
	<path class="st1" d="M91.3,45.8v-11h2.4v1.3c1.2-0.8,2.5-1.3,3.7-1.6v2.4c-1.3,0.3-2.3,0.6-3.2,1l-0.5,0.2v7.7H91.3z"/>
	<path class="st1" d="M98.4,34.8h2.4l1.7,9h0.4L105,35h2.5l2.1,8.7h0.4l1.7-9h2.4l-2.3,11h-3.8l-1.7-7.5l-1.7,7.5h-3.8L98.4,34.8z"
		/>
	<path class="st1" d="M124.3,38.1v5c0,0.3,0.1,0.6,0.3,0.7c0.2,0.2,0.4,0.3,0.7,0.3l-0.1,1.8c-1.3,0-2.2-0.3-2.9-0.8
		c-1.2,0.5-2.4,0.8-3.5,0.8c-2.2,0-3.3-1.2-3.3-3.5c0-1.1,0.3-1.9,0.9-2.4c0.6-0.5,1.5-0.8,2.7-0.9l2.8-0.2v-0.8
		c0-0.6-0.1-1-0.4-1.2s-0.6-0.4-1.1-0.4c-0.9,0-2.1,0.1-3.5,0.2l-0.7,0l-0.1-1.7c1.6-0.4,3.1-0.6,4.4-0.6s2.3,0.3,2.9,0.9
		C124,36,124.3,36.9,124.3,38.1z M119.3,40.9c-1,0.1-1.5,0.6-1.5,1.6c0,1,0.4,1.5,1.3,1.5c0.7,0,1.5-0.1,2.3-0.4l0.4-0.1v-2.9
		L119.3,40.9z"/>
	<path class="st1" d="M134.9,37c-1.7-0.2-3-0.4-3.8-0.4s-1.3,0.1-1.6,0.3s-0.5,0.5-0.5,0.9c0,0.4,0.2,0.7,0.5,0.8
		c0.3,0.2,1.1,0.3,2.3,0.6s2.1,0.5,2.6,1c0.5,0.5,0.8,1.3,0.8,2.4c0,1.2-0.4,2-1.1,2.6c-0.7,0.5-1.8,0.8-3.2,0.8
		c-0.9,0-2-0.1-3.4-0.4l-0.7-0.1l0.1-2c1.8,0.2,3,0.4,3.8,0.4s1.3-0.1,1.7-0.3s0.5-0.5,0.5-0.9s-0.2-0.7-0.5-0.9
		c-0.3-0.2-1.1-0.4-2.3-0.5s-2.1-0.5-2.6-0.9c-0.6-0.4-0.8-1.2-0.8-2.3c0-1.1,0.4-2,1.2-2.5c0.8-0.6,1.8-0.8,3-0.8
		c0.9,0,2.1,0.1,3.5,0.4l0.7,0.1L134.9,37z"/>
	<path class="st1" d="M140,45.8h-2.4V30.2h2.4v5.1c1.1-0.5,2.1-0.8,3-0.8c1.5,0,2.5,0.4,3,1.2c0.5,0.8,0.8,2.2,0.8,4.1v5.9h-2.4
		v-5.8c0-1.2-0.1-2-0.4-2.5c-0.3-0.5-0.8-0.7-1.6-0.7c-0.7,0-1.4,0.1-2.1,0.4l-0.4,0.1V45.8z"/>
</g>
</svg>
